<?xml version="1.0" encoding="UTF-8" standalone="no"?>
<svg
   viewBox="0 0 234.02489 222.88084"
   version="1.1"
   id="svg20"
   sodipodi:docname="additive_mixing_example.svg"
   width="234.02489"
   height="222.88084"
   inkscape:version="1.2.2 (b0a8486541, 2022-12-01)"
   xmlns:inkscape="http://www.inkscape.org/namespaces/inkscape"
   xmlns:sodipodi="http://sodipodi.sourceforge.net/DTD/sodipodi-0.dtd"
   xmlns="http://www.w3.org/2000/svg"
   xmlns:svg="http://www.w3.org/2000/svg">
  <defs
     id="defs24" />
  <sodipodi:namedview
     id="namedview22"
     pagecolor="#ffffff"
     bordercolor="#666666"
     borderopacity="1.0"
     inkscape:showpageshadow="2"
     inkscape:pageopacity="0.0"
     inkscape:pagecheckerboard="0"
     inkscape:deskcolor="#d1d1d1"
     showgrid="false"
     inkscape:zoom="0.59"
     inkscape:cx="163.55932"
     inkscape:cy="200"
     inkscape:window-width="1680"
     inkscape:window-height="997"
     inkscape:window-x="0"
     inkscape:window-y="0"
     inkscape:window-maximized="1"
     inkscape:current-layer="svg20" />
  <path
     d="M 0,0 H 234.02488 V 222.88084 H 0"
     id="path2"
     style="stroke-width:0.557202" />
  <g
     transform="matrix(72.436273,0,0,72.436273,117.01244,80.237104)"
     id="g18">
    <path
       fill="#ff0000"
       d="M 1,0 A 1,1 0 0 0 -1,0"
       id="path4" />
    <path
       fill="#00ff00"
       d="M -1,0 A 1,1 0 0 0 0,1.73"
       id="path6" />
    <path
       fill="#0000ff"
       d="M 0,1.73 A 1,1 0 0 0 1,0"
       id="path8" />
    <path
       fill="#ffff00"
       d="m 0,0 a 1,1 0 0 0 -1,0 1,1 0 0 0 0.5,0.87"
       id="path10" />
    <path
       fill="#00ffff"
       d="M -0.5,0.87 A 1,1 0 0 0 0,1.73 1,1 0 0 0 0.5,0.87"
       id="path12" />
    <path
       fill="#ff00ff"
       d="M 0.5,0.87 A 1,1 0 0 0 1,0 1,1 0 0 0 0,0"
       id="path14" />
    <path
       fill="#ffffff"
       d="m 0,0 a 1,1 0 0 0 -0.5,0.87 1,1 0 0 0 1,0 A 1,1 0 0 0 0,0"
       id="path16" />
  </g>
</svg>
