<?xml version="1.0" encoding="UTF-8" standalone="no"?>
<!-- Created with Inkscape (http://www.inkscape.org/) -->

<svg
   width="448.78546"
   height="349.19147"
   viewBox="0 0 448.78546 349.19147"
   version="1.1"
   id="svg1"
   inkscape:version="1.3 (0e150ed6c4, 2023-07-21)"
   sodipodi:docname="Github_LED_Grafiken.svg"
   xml:space="preserve"
   xmlns:inkscape="http://www.inkscape.org/namespaces/inkscape"
   xmlns:sodipodi="http://sodipodi.sourceforge.net/DTD/sodipodi-0.dtd"
   xmlns="http://www.w3.org/2000/svg"
   xmlns:svg="http://www.w3.org/2000/svg"><sodipodi:namedview
     id="namedview1"
     pagecolor="#ffffff"
     bordercolor="#666666"
     borderopacity="1.0"
     inkscape:showpageshadow="2"
     inkscape:pageopacity="0.0"
     inkscape:pagecheckerboard="0"
     inkscape:deskcolor="#d1d1d1"
     inkscape:document-units="px"
     showguides="true"
     inkscape:zoom="0.515"
     inkscape:cx="951.45631"
     inkscape:cy="766.01942"
     inkscape:window-width="1920"
     inkscape:window-height="1172"
     inkscape:window-x="0"
     inkscape:window-y="0"
     inkscape:window-maximized="1"
     inkscape:current-layer="layer1"
     showgrid="false"><inkscape:grid
       id="grid2"
       units="px"
       originx="-788.00311"
       originy="-65.331703"
       spacingx="1"
       spacingy="1"
       empcolor="#3f3fff"
       empopacity="0.25098039"
       color="#3f3fff"
       opacity="0.1254902"
       empspacing="5"
       dotted="false"
       gridanglex="30"
       gridanglez="30"
       visible="false" /></sodipodi:namedview><defs
     id="defs1" /><g
     inkscape:label="Ebene 1"
     inkscape:groupmode="layer"
     id="layer1"
     transform="translate(-788.00311,-65.331703)"><rect
       style="fill:#000000;stroke:none;stroke-width:6.371;stroke-linecap:round;stroke-linejoin:round;stroke-dasharray:none;stroke-opacity:1"
       id="rect22"
       width="448.78549"
       height="349.19147"
       x="788.00311"
       y="65.331703"
       ry="60.044357" /><path
       d="m 1007.1489,96.92436 a 99.428818,100 0 0 0 -17.26568,1.51953 99.428818,100 0 0 0 -16.74219,4.51172 99.428818,100 0 0 0 -15.70703,7.36719 99.428818,100 0 0 0 -14.19726,9.99804 99.428818,100 0 0 0 -12.25586,12.32422 99.428818,100 0 0 0 -9.94141,14.2793 99.428818,100 0 0 0 -7.32422,15.79883 99.428818,100 0 0 0 -4.48632,16.83594 99.428818,100 0 0 0 -1.25,14.37695 99.428818,100 0 0 1 1.14453,-0.80664 99.428818,100 0 0 1 15.70898,-7.36719 99.428818,100 0 0 1 16.74024,-4.50977 99.428818,100 0 0 1 17.26562,-1.51953 99.428818,100 0 0 1 6.00391,0.18164 99.428818,100 0 0 1 5.98047,0.54688 99.428818,100 0 0 1 5.9375,0.9082 99.428818,100 0 0 1 5.87304,1.26953 99.428818,100 0 0 1 5.78516,1.6211 99.428818,100 0 0 1 5.67773,1.9707 99.428818,100 0 0 1 5.54883,2.31055 99.428818,100 0 0 1 5.40036,2.64453 99.428818,100 0 0 1 3.4707,1.9707 99.428818,100 0 0 1 0.037,-0.0273 99.428818,100 0 0 1 15.7071,-7.36719 99.428818,100 0 0 1 16.7422,-4.50977 99.428818,100 0 0 1 17.2656,-1.51953 99.428818,100 0 0 1 6.0019,0.18164 99.428818,100 0 0 1 5.9825,0.54688 99.428818,100 0 0 1 5.9375,0.9082 99.428818,100 0 0 1 5.873,1.26953 99.428818,100 0 0 1 5.7852,1.6211 99.428818,100 0 0 1 5.6777,1.9707 99.428818,100 0 0 1 5.5488,2.31055 99.428818,100 0 0 1 5.4004,2.64453 99.428818,100 0 0 1 1.9629,1.11328 99.428818,100 0 0 0 -0.043,-1.41211 99.428818,100 0 0 0 -0.543,-6.01562 99.428818,100 0 0 0 -0.9043,-5.97266 99.428818,100 0 0 0 -1.2597,-5.90625 99.428818,100 0 0 0 -1.6133,-5.81836 99.428818,100 0 0 0 -1.959,-5.71094 99.428818,100 0 0 0 -2.2988,-5.58008 99.428818,100 0 0 0 -2.6289,-5.43164 99.428818,100 0 0 0 -2.9512,-5.26172 99.428818,100 0 0 0 -3.2598,-5.07226 99.428818,100 0 0 0 -3.5605,-4.86524 99.428818,100 0 0 0 -3.8457,-4.64062 99.428818,100 0 0 0 -4.1152,-4.39844 99.428818,100 0 0 0 -4.3731,-4.14062 99.428818,100 0 0 0 -4.6152,-3.86719 99.428818,100 0 0 0 -4.8379,-3.58008 99.428818,100 0 0 0 -5.043,-3.2793 99.428818,100 0 0 0 -5.2324,-2.96679 99.428818,100 0 0 0 -5.3984,-2.64453 99.428818,100 0 0 0 -5.5489,-2.3125 99.428818,100 0 0 0 -5.6777,-1.97071 99.428818,100 0 0 0 -5.7852,-1.62109 99.428818,100 0 0 0 -5.873,-1.26758 99.428818,100 0 0 0 -5.9375,-0.91015 99.428818,100 0 0 0 -5.9824,-0.54688 99.428818,100 0 0 0 -6.0019,-0.18168 z"
       style="fill:#ff0000;stroke-width:6;stroke-linecap:round;stroke-linejoin:round"
       id="path11" /><path
       d="m 959.2426,284.37553 a 99.428818,100 0 0 1 -0.4043,-4.64258 99.428818,100 0 0 1 1.50977,-17.36523 99.428818,100 0 0 1 4.48632,-16.83789 99.428818,100 0 0 1 7.32422,-15.79688 99.428818,100 0 0 1 9.94141,-14.27929 99.428818,100 0 0 1 12.25586,-12.32618 99.428818,100 0 0 1 14.16012,-9.9707 99.428818,100 0 0 0 -3.4707,-1.9707 99.428818,100 0 0 0 -5.40036,-2.64453 99.428818,100 0 0 0 -5.54883,-2.31055 99.428818,100 0 0 0 -5.67773,-1.9707 99.428818,100 0 0 0 -5.78516,-1.6211 99.428818,100 0 0 0 -5.87304,-1.26953 99.428818,100 0 0 0 -5.9375,-0.9082 99.428818,100 0 0 0 -5.98047,-0.54688 99.428818,100 0 0 0 -6.00391,-0.18164 99.428818,100 0 0 0 -17.26562,1.51953 99.428818,100 0 0 0 -16.74024,4.50977 99.428818,100 0 0 0 -15.70898,7.36719 99.428818,100 0 0 0 -1.14453,0.80664 99.428818,100 0 0 0 -0.25977,2.98828 99.428818,100 0 0 0 1.50977,17.36523 99.428818,100 0 0 0 4.48632,16.83594 99.428818,100 0 0 0 7.32422,15.79883 99.428818,100 0 0 0 9.94141,14.2793 99.428818,100 0 0 0 12.25586,12.32422 99.428818,100 0 0 0 14.19726,10 99.428818,100 0 0 0 1.8086,0.84765 z"
       style="fill:#ffff00;stroke-width:6;stroke-linecap:round;stroke-linejoin:round"
       id="path17" /><path
       d="m 959.2426,284.37553 a 99.428818,100 0 0 1 -1.8086,-0.84765 99.428818,100 0 0 1 -14.19726,-10 99.428818,100 0 0 1 -12.25586,-12.32422 99.428818,100 0 0 1 -9.94141,-14.2793 99.428818,100 0 0 1 -7.32422,-15.79883 99.428818,100 0 0 1 -4.48632,-16.83594 99.428818,100 0 0 1 -1.50977,-17.36523 99.428818,100 0 0 1 0.25977,-2.98828 99.428818,100 0 0 0 -13.05274,9.1914 99.428818,100 0 0 0 -12.25391,12.32618 99.428818,100 0 0 0 -9.9414,14.27929 99.428818,100 0 0 0 -7.32422,15.79688 99.428818,100 0 0 0 -4.48633,16.83789 99.428818,100 0 0 0 -1.50976,17.36523 99.428818,100 0 0 0 1.50976,17.36524 99.428818,100 0 0 0 4.48633,16.83594 99.428818,100 0 0 0 7.32422,15.79882 99.428818,100 0 0 0 9.9414,14.27735 99.428818,100 0 0 0 12.25391,12.32617 99.428818,100 0 0 0 14.19727,9.99805 99.428818,100 0 0 0 15.70898,7.36718 99.428818,100 0 0 0 16.74024,4.51172 99.428818,100 0 0 0 17.26562,1.51953 99.428818,100 0 0 0 17.26563,-1.51953 99.428818,100 0 0 0 16.74023,-4.51172 99.428818,100 0 0 0 15.70894,-7.36718 99.428818,100 0 0 1 -14.19722,-9.99805 99.428818,100 0 0 1 -12.25586,-12.32617 99.428818,100 0 0 1 -9.94141,-14.27735 99.428818,100 0 0 1 -7.32422,-15.79882 99.428818,100 0 0 1 -4.48632,-16.83594 99.428818,100 0 0 1 -1.10547,-12.72266 z"
       style="fill:#66ff00;stroke-width:6;stroke-linecap:round;stroke-linejoin:round"
       id="path16" /><path
       d="m 1058.0082,282.72123 a 99.428818,100 0 0 0 0.2598,-2.98828 99.428818,100 0 0 0 -0.1816,-6.03906 99.428818,100 0 0 0 -0.545,-6.01562 99.428818,100 0 0 0 -0.9023,-5.97071 99.428818,100 0 0 0 -1.2617,-5.90625 99.428818,100 0 0 0 -1.6114,-5.81836 99.428818,100 0 0 0 -1.9609,-5.71093 99.428818,100 0 0 0 -2.2969,-5.58008 99.428818,100 0 0 0 -2.6308,-5.43164 99.428818,100 0 0 0 -2.9493,-5.26172 99.428818,100 0 0 0 -3.2617,-5.07227 99.428818,100 0 0 0 -3.5586,-4.86523 99.428818,100 0 0 0 -3.8457,-4.64063 99.428818,100 0 0 0 -4.1172,-4.39843 99.428818,100 0 0 0 -4.373,-4.14063 99.428818,100 0 0 0 -4.6133,-3.86719 99.428818,100 0 0 0 -4.8379,-3.58007 99.428818,100 0 0 0 -5.0449,-3.2793 99.428818,100 0 0 0 -1.7598,-0.99805 99.428818,100 0 0 0 -14.16012,9.9707 99.428818,100 0 0 0 -12.25586,12.32618 99.428818,100 0 0 0 -9.94141,14.27929 99.428818,100 0 0 0 -7.32422,15.79688 99.428818,100 0 0 0 -4.48632,16.83789 99.428818,100 0 0 0 -1.50977,17.36523 99.428818,100 0 0 0 0.4043,4.64258 99.428818,100 0 0 0 13.89843,6.51758 99.428818,100 0 0 0 16.74219,4.51172 99.428818,100 0 0 0 17.26568,1.51953 99.428818,100 0 0 0 17.2656,-1.51953 99.428818,100 0 0 0 16.7402,-4.51172 99.428818,100 0 0 0 15.707,-7.36523 99.428818,100 0 0 0 1.1465,-0.80665 z"
       style="fill:#ffffff;stroke-width:6;stroke-linecap:round;stroke-linejoin:round"
       id="path15" /><path
       d="m 1058.0082,282.72123 a 99.428818,100 0 0 1 -1.1465,0.80665 99.428818,100 0 0 1 -15.707,7.36523 99.428818,100 0 0 1 -16.7402,4.51172 99.428818,100 0 0 1 -17.2656,1.51953 99.428818,100 0 0 1 -17.26568,-1.51953 99.428818,100 0 0 1 -16.74219,-4.51172 99.428818,100 0 0 1 -13.89843,-6.51758 99.428818,100 0 0 0 1.10547,12.72266 99.428818,100 0 0 0 4.48632,16.83594 99.428818,100 0 0 0 7.32422,15.79882 99.428818,100 0 0 0 9.94141,14.27735 99.428818,100 0 0 0 12.25586,12.32617 99.428818,100 0 0 0 14.19722,9.99805 99.428818,100 0 0 0 14.1973,-9.99805 99.428818,100 0 0 0 12.2559,-12.32617 99.428818,100 0 0 0 9.9394,-14.27735 99.428818,100 0 0 0 7.3262,-15.79882 99.428818,100 0 0 0 4.4844,-16.83594 99.428818,100 0 0 0 1.2519,-14.37696 z"
       style="fill:#55ffdd;stroke-width:6;stroke-linecap:round;stroke-linejoin:round"
       id="path14" /><path
       d="m 1106.4379,192.29936 a 99.428818,100 0 0 0 -1.9629,-1.11328 99.428818,100 0 0 0 -5.4004,-2.64453 99.428818,100 0 0 0 -5.5488,-2.31055 99.428818,100 0 0 0 -5.6777,-1.9707 99.428818,100 0 0 0 -5.7852,-1.6211 99.428818,100 0 0 0 -5.873,-1.26953 99.428818,100 0 0 0 -5.9375,-0.9082 99.428818,100 0 0 0 -5.9825,-0.54688 99.428818,100 0 0 0 -6.0019,-0.18164 99.428818,100 0 0 0 -17.2656,1.51953 99.428818,100 0 0 0 -16.7422,4.50977 99.428818,100 0 0 0 -15.7071,7.36719 99.428818,100 0 0 0 -0.037,0.0273 99.428818,100 0 0 1 1.7598,0.99805 99.428818,100 0 0 1 5.0449,3.2793 99.428818,100 0 0 1 4.8379,3.58007 99.428818,100 0 0 1 4.6133,3.86719 99.428818,100 0 0 1 4.3731,4.14063 99.428818,100 0 0 1 4.1171,4.39843 99.428818,100 0 0 1 3.8457,4.64063 99.428818,100 0 0 1 3.5586,4.86523 99.428818,100 0 0 1 3.2618,5.07227 99.428818,100 0 0 1 2.9492,5.26172 99.428818,100 0 0 1 2.6308,5.43164 99.428818,100 0 0 1 2.2969,5.58008 99.428818,100 0 0 1 1.9609,5.71093 99.428818,100 0 0 1 1.6114,5.81836 99.428818,100 0 0 1 1.2617,5.90625 99.428818,100 0 0 1 0.9023,5.97071 99.428818,100 0 0 1 0.545,6.01562 99.428818,100 0 0 1 0.1816,6.03906 99.428818,100 0 0 1 -0.2598,2.98828 99.428818,100 0 0 0 13.0508,-9.19335 99.428818,100 0 0 0 12.2559,-12.32422 99.428818,100 0 0 0 9.9414,-14.2793 99.428818,100 0 0 0 7.3242,-15.79883 99.428818,100 0 0 0 4.4863,-16.83594 99.428818,100 0 0 0 1.5098,-17.36523 99.428818,100 0 0 0 -0.1387,-4.625 z"
       style="fill:#ff00ff;stroke-width:6;stroke-linecap:round;stroke-linejoin:round"
       id="path13" /><path
       d="m 1106.4379,192.29936 a 99.428818,100 0 0 1 0.1387,4.625 99.428818,100 0 0 1 -1.5098,17.36523 99.428818,100 0 0 1 -4.4863,16.83594 99.428818,100 0 0 1 -7.3242,15.79883 99.428818,100 0 0 1 -9.9414,14.2793 99.428818,100 0 0 1 -12.2559,12.32422 99.428818,100 0 0 1 -13.0508,9.19335 99.428818,100 0 0 1 -1.2519,14.37696 99.428818,100 0 0 1 -4.4844,16.83594 99.428818,100 0 0 1 -7.3262,15.79882 99.428818,100 0 0 1 -9.9394,14.27735 99.428818,100 0 0 1 -12.2559,12.32617 99.428818,100 0 0 1 -14.1973,9.99805 99.428818,100 0 0 0 15.7071,7.36718 99.428818,100 0 0 0 16.7422,4.51172 99.428818,100 0 0 0 17.2656,1.51953 99.428818,100 0 0 0 17.2656,-1.51953 99.428818,100 0 0 0 16.7403,-4.51172 99.428818,100 0 0 0 15.707,-7.36718 99.428818,100 0 0 0 14.1972,-9.99805 99.428818,100 0 0 0 12.2559,-12.32617 99.428818,100 0 0 0 9.9414,-14.27735 99.428818,100 0 0 0 7.3242,-15.79882 99.428818,100 0 0 0 4.4864,-16.83594 99.428818,100 0 0 0 1.5097,-17.36524 99.428818,100 0 0 0 -0.1816,-6.03906 99.428818,100 0 0 0 -0.543,-6.01562 99.428818,100 0 0 0 -0.9043,-5.97071 99.428818,100 0 0 0 -1.2597,-5.90625 99.428818,100 0 0 0 -1.6133,-5.81836 99.428818,100 0 0 0 -1.959,-5.71093 99.428818,100 0 0 0 -2.2988,-5.58008 99.428818,100 0 0 0 -2.6289,-5.43164 99.428818,100 0 0 0 -2.9512,-5.26172 99.428818,100 0 0 0 -3.2598,-5.07227 99.428818,100 0 0 0 -3.5605,-4.86523 99.428818,100 0 0 0 -3.8457,-4.64063 99.428818,100 0 0 0 -4.1153,-4.39843 99.428818,100 0 0 0 -4.373,-4.14063 99.428818,100 0 0 0 -4.6152,-3.86719 99.428818,100 0 0 0 -4.8379,-3.58007 99.428818,100 0 0 0 -5.043,-3.2793 99.428818,100 0 0 0 -3.2676,-1.85547 z"
       style="fill:#0066ff;stroke-width:6;stroke-linecap:round;stroke-linejoin:round"
       id="path12" /></g></svg>
