<?xml version="1.0" encoding="UTF-8" standalone="no"?>
<!-- Created with Inkscape (http://www.inkscape.org/) -->

<svg
   width="704.28003"
   height="488.41299"
   viewBox="0 0 704.28003 488.41299"
   version="1.1"
   id="svg1"
   inkscape:version="1.2.2 (b0a8486541, 2022-12-01)"
   sodipodi:docname="LEDs.svg"
   xmlns:inkscape="http://www.inkscape.org/namespaces/inkscape"
   xmlns:sodipodi="http://sodipodi.sourceforge.net/DTD/sodipodi-0.dtd"
   xmlns="http://www.w3.org/2000/svg"
   xmlns:svg="http://www.w3.org/2000/svg">
  <sodipodi:namedview
     id="namedview1"
     pagecolor="#ffffff"
     bordercolor="#666666"
     borderopacity="1.0"
     inkscape:showpageshadow="2"
     inkscape:pageopacity="0.0"
     inkscape:pagecheckerboard="0"
     inkscape:deskcolor="#d1d1d1"
     inkscape:document-units="px"
     showguides="true"
     inkscape:zoom="1.2689249"
     inkscape:cx="334.92921"
     inkscape:cy="234.05641"
     inkscape:window-width="1680"
     inkscape:window-height="997"
     inkscape:window-x="0"
     inkscape:window-y="0"
     inkscape:window-maximized="1"
     inkscape:current-layer="layer1"
     showgrid="false">
    <sodipodi:guide
       position="-100.93288,919.67458"
       orientation="0,-1"
       id="guide2"
       inkscape:locked="false" />
    <sodipodi:guide
       position="-119.44544,931.52262"
       orientation="0,-1"
       id="guide3"
       inkscape:locked="false" />
    <sodipodi:guide
       position="180.67264,72.919005"
       orientation="0,-1"
       id="guide1752"
       inkscape:locked="false" />
  </sodipodi:namedview>
  <defs
     id="defs1">
    <marker
       style="overflow:visible"
       id="marker1690"
       refX="0"
       refY="0"
       orient="auto-start-reverse"
       inkscape:stockid="TriangleStart"
       markerWidth="5.3244081"
       markerHeight="6.155385"
       viewBox="0 0 5.3244081 6.1553851"
       inkscape:isstock="true"
       inkscape:collect="always"
       preserveAspectRatio="xMidYMid">
      <path
         transform="scale(0.5)"
         style="fill:context-stroke;fill-rule:evenodd;stroke:context-stroke;stroke-width:1pt"
         d="M 5.77,0 -2.88,5 V -5 Z"
         id="path1688" />
    </marker>
    <marker
       style="overflow:visible"
       id="marker1640"
       refX="0"
       refY="0"
       orient="auto-start-reverse"
       inkscape:stockid="TriangleStart"
       markerWidth="5.3244081"
       markerHeight="6.155385"
       viewBox="0 0 5.3244081 6.1553851"
       inkscape:isstock="true"
       inkscape:collect="always"
       preserveAspectRatio="xMidYMid">
      <path
         transform="scale(0.5)"
         style="fill:context-stroke;fill-rule:evenodd;stroke:context-stroke;stroke-width:1pt"
         d="M 5.77,0 -2.88,5 V -5 Z"
         id="path1638" />
    </marker>
    <marker
       style="overflow:visible"
       id="TriangleStart"
       refX="0"
       refY="0"
       orient="auto-start-reverse"
       inkscape:stockid="TriangleStart"
       markerWidth="5.3244081"
       markerHeight="6.155385"
       viewBox="0 0 5.3244081 6.1553851"
       inkscape:isstock="true"
       inkscape:collect="always"
       preserveAspectRatio="xMidYMid">
      <path
         transform="scale(0.5)"
         style="fill:context-stroke;fill-rule:evenodd;stroke:context-stroke;stroke-width:1pt"
         d="M 5.77,0 -2.88,5 V -5 Z"
         id="path135" />
    </marker>
  </defs>
  <g
     inkscape:label="Ebene 1"
     inkscape:groupmode="layer"
     id="layer1"
     transform="translate(-368.99474,-159.22355)">
    <path
       id="rect1"
       style="fill:none;stroke:#000000;stroke-width:3.64724;stroke-linecap:round;stroke-linejoin:round"
       d="m 460.20806,163.50116 h -28.02213 c -25.4529,0 -45.9192,20.49098 -45.94387,45.94387 l -0.12301,126.91243 c -0.0216,22.25406 -3.68006,19.32542 21.77269,19.41084 l 76.24049,0.25586 c 25.45275,0.0854 21.87558,2.11345 21.89669,-19.6667 l 0.12301,-126.91243 c 0.0247,-25.45289 -20.49097,-45.94387 -45.94387,-45.94387 z"
       sodipodi:nodetypes="sssssssss"
       inkscape:export-filename="rLEDs.svg"
       inkscape:export-xdpi="198"
       inkscape:export-ydpi="198" />
    <path
       style="fill:none;stroke:#000000;stroke-width:6;stroke-linecap:butt;stroke-linejoin:miter;stroke-dasharray:none;stroke-opacity:1"
       d="M 484.65785,367.87962 V 551.79017"
       id="path1"
       sodipodi:nodetypes="cc" />
    <path
       style="fill:none;stroke:#000000;stroke-width:6.78834;stroke-linecap:butt;stroke-linejoin:miter;stroke-dasharray:none;stroke-opacity:1"
       d="M 460.00889,363.30826 V 598.72191"
       id="path1-6"
       sodipodi:nodetypes="cc" />
    <path
       style="fill:none;stroke:#000000;stroke-width:6;stroke-linecap:butt;stroke-linejoin:miter;stroke-dasharray:none;stroke-opacity:1"
       d="M 432.09419,366.77871 V 550.68926"
       id="path1-2"
       sodipodi:nodetypes="cc" />
    <path
       style="fill:none;stroke:#000000;stroke-width:6;stroke-linecap:butt;stroke-linejoin:miter;stroke-dasharray:none;stroke-opacity:1"
       d="M 406.01537,366.15572 V 550.06627"
       id="path1-7"
       sodipodi:nodetypes="cc" />
    <path
       id="rect7-6"
       style="fill:#cccccc;stroke:#cccccc;stroke-width:6.46578;stroke-linecap:round;stroke-linejoin:round"
       d="m 500.42448,198.48968 c 0,0 -4.72641,-14.35633 -16.67253,-22.39845 -11.94612,-8.04213 -25.38248,-8.66 -35.30202,-8.66 -9.91954,0 -30.44399,-1.05604 -43.81006,9.98872 -10.33815,8.5427 -13.4571,22.79056 -13.4571,22.79056 l -1.05106,81.77843 h 110.5522 z"
       sodipodi:nodetypes="cssscccc" />
    <path
       id="rect7"
       style="fill:#e6e6e6;stroke:#e6e6e6;stroke-width:5.09104;stroke-linecap:round;stroke-linejoin:round"
       d="m 502.20747,287.02951 c 0,0 -38.59844,-6.98696 -58.68423,-6.98696 -20.08579,0 -53.24271,6.98696 -53.24271,6.98696 v 63.84296 h 111.92694 z"
       sodipodi:nodetypes="czcccc" />
    <path
       id="rect8"
       style="fill:#e6e6e6;stroke:#e6e6e6;stroke-width:5.3;stroke-linecap:round;stroke-linejoin:round"
       d="m 462.31279,167.8774 c -23.27192,0.0686 -40.57449,0.32543 -52.39629,6.57328 -11.02189,9.18587 -17.36881,15.65663 -19.82639,24.2522 11.54765,5.8714 23.32551,5.03264 35.89304,-1.15231 12.56753,-6.18495 28.68077,-7.89558 36.32964,-29.67317 z"
       sodipodi:nodetypes="ccccc" />
    <path
       id="rect2"
       style="fill:#ececec;stroke:#000000;stroke-width:4.14255;stroke-linecap:round;stroke-linejoin:round"
       d="m 495.32394,354.8853 -94.35545,0.83641 c -6.80165,0.0604 -18.07715,0.51822 -18.07715,0.51822 -7.13446,-0.86617 -6.8477,9.70722 -0.0457,9.70722 h 129.73519 c 2.45329,0 4.81152,-10.23918 -0.0652,-10.87116 0,0 -10.72958,-0.24798 -17.19163,-0.19069 z"
       sodipodi:nodetypes="sssssss" />
    <path
       id="rect1-7"
       style="fill:none;stroke:#000000;stroke-width:3.64724;stroke-linecap:round;stroke-linejoin:round"
       d="m 1000.0419,163.04717 h -28.02206 c -25.4529,0 -45.9192,20.49098 -45.9439,45.94387 l -0.123,126.91243 c -0.022,22.25406 -3.6801,19.32542 21.7727,19.41084 l 76.24046,0.25586 c 25.4528,0.0854 21.8756,2.11345 21.8967,-19.6667 l 0.123,-126.91243 c 0.025,-25.45289 -20.491,-45.94387 -45.9439,-45.94387 z"
       sodipodi:nodetypes="sssssssss" />
    <path
       style="fill:none;stroke:#000000;stroke-width:6;stroke-linecap:butt;stroke-linejoin:miter;stroke-dasharray:none;stroke-opacity:1;marker-end:url(#marker1640)"
       d="M 1024.4917,367.42563 V 551.33618"
       id="path1-3"
       sodipodi:nodetypes="cc" />
    <path
       style="fill:none;stroke:#000000;stroke-width:6.78834;stroke-linecap:butt;stroke-linejoin:miter;stroke-dasharray:none;stroke-opacity:1"
       d="M 999.84277,362.85427 V 598.26792"
       id="path1-6-6"
       sodipodi:nodetypes="cc" />
    <path
       style="fill:none;stroke:#000000;stroke-width:6;stroke-linecap:butt;stroke-linejoin:miter;stroke-dasharray:none;stroke-opacity:1"
       d="M 971.92804,366.32472 V 550.23527"
       id="path1-2-1"
       sodipodi:nodetypes="cc" />
    <path
       style="fill:none;stroke:#000000;stroke-width:6;stroke-linecap:butt;stroke-linejoin:miter;stroke-dasharray:none;stroke-opacity:1"
       d="M 945.84924,365.70173 V 549.61228"
       id="path1-7-2"
       sodipodi:nodetypes="cc" />
    <path
       id="rect7-6-9"
       style="fill:#ff5555;stroke:#ff5555;stroke-width:6.46578;stroke-linecap:round;stroke-linejoin:round"
       d="m 1040.2584,198.03569 c 0,0 -4.7265,-14.35633 -16.6726,-22.39845 -11.9461,-8.04213 -25.38245,-8.66 -35.30199,-8.66 -9.91954,0 -30.44397,-1.05604 -43.81007,9.98872 -10.3381,8.5427 -13.4571,22.79056 -13.4571,22.79056 l -1.0511,81.77843 h 110.55226 z"
       sodipodi:nodetypes="cssscccc" />
    <path
       id="rect7-3"
       style="fill:#ff8080;stroke:#ff8080;stroke-width:5.09104;stroke-linecap:round;stroke-linejoin:round"
       d="m 1042.0413,286.57552 c 0,0 -38.5984,-6.98696 -58.68418,-6.98696 -20.08578,0 -53.24268,6.98696 -53.24268,6.98696 v 63.84296 h 111.92686 z"
       sodipodi:nodetypes="czcccc" />
    <path
       id="rect8-1"
       style="fill:#ff8080;stroke:#ff8080;stroke-width:5.3;stroke-linecap:round;stroke-linejoin:round"
       d="m 1002.1467,167.42341 c -23.27195,0.0686 -40.57456,0.32543 -52.39636,6.57328 -11.0218,9.18587 -17.3688,15.65663 -19.8263,24.2522 11.5476,5.8714 23.3255,5.03264 35.893,-1.15231 12.56752,-6.18495 28.68076,-7.89558 36.32966,-29.67317 z"
       sodipodi:nodetypes="ccccc" />
    <path
       id="rect2-5"
       style="fill:#ff8080;stroke:#000000;stroke-width:4.1424;stroke-linecap:round;stroke-linejoin:round"
       d="m 1035.8294,354.43125 -94.34796,0.83641 c -6.8011,0.0603 -18.0757,0.51823 -18.0757,0.51823 -7.1339,-0.86617 -6.8472,9.70734 -0.046,9.70734 H 1053.085 c 2.4531,0 4.8111,-10.2393 -0.065,-10.8713 0,0 -10.7288,-0.24797 -17.1903,-0.19068 z"
       sodipodi:nodetypes="sssssss" />
    <path
       id="rect1-7-1"
       style="fill:none;stroke:#000000;stroke-width:3.64724;stroke-linecap:round;stroke-linejoin:round"
       d="m 647.26161,163.8609 h -28.02213 c -25.4529,0 -45.9192,20.49098 -45.94387,45.94387 L 573.1726,336.7172 c -0.0216,22.25406 -3.68006,19.32542 21.77269,19.41084 l 76.24049,0.25586 c 25.45275,0.0854 21.87558,2.11345 21.89669,-19.6667 l 0.12301,-126.91243 c 0.0247,-25.45289 -20.49097,-45.94387 -45.94387,-45.94387 z"
       sodipodi:nodetypes="sssssssss" />
    <path
       style="fill:none;stroke:#000000;stroke-width:6;stroke-linecap:butt;stroke-linejoin:miter;stroke-dasharray:none;stroke-opacity:1"
       d="M 671.7114,368.23936 V 552.14991"
       id="path1-3-0"
       sodipodi:nodetypes="cc" />
    <path
       style="fill:none;stroke:#000000;stroke-width:6.78834;stroke-linecap:butt;stroke-linejoin:miter;stroke-dasharray:none;stroke-opacity:1"
       d="M 647.06244,363.668 V 599.08165"
       id="path1-6-6-6"
       sodipodi:nodetypes="cc" />
    <path
       style="fill:none;stroke:#000000;stroke-width:6;stroke-linecap:butt;stroke-linejoin:miter;stroke-dasharray:none;stroke-opacity:1"
       d="M 619.14774,367.13845 V 551.049"
       id="path1-2-1-3"
       sodipodi:nodetypes="cc" />
    <path
       style="fill:none;stroke:#000000;stroke-width:6;stroke-linecap:butt;stroke-linejoin:miter;stroke-dasharray:none;stroke-opacity:1;marker-end:url(#marker1690)"
       d="M 593.06892,366.51546 V 550.42601"
       id="path1-7-2-2"
       sodipodi:nodetypes="cc" />
    <path
       id="rect7-6-9-0"
       style="fill:#2774ed;fill-opacity:1;stroke:#2774ed;stroke-width:6.46578;stroke-linecap:round;stroke-linejoin:round;stroke-opacity:1"
       d="m 687.47803,198.84942 c 0,0 -4.72641,-14.35633 -16.67253,-22.39845 -11.94612,-8.04213 -25.38248,-8.66 -35.30202,-8.66 -9.91954,0 -30.44399,-1.05604 -43.81006,9.98872 -10.33815,8.5427 -13.4571,22.79056 -13.4571,22.79056 l -1.05106,81.77843 h 110.5522 z"
       sodipodi:nodetypes="cssscccc" />
    <path
       id="rect7-3-6"
       style="fill:#5894f1;fill-opacity:1;stroke:#5894f1;stroke-width:5.09104;stroke-linecap:round;stroke-linejoin:round;stroke-opacity:1"
       d="m 689.26102,287.38925 c 0,0 -38.59844,-6.98696 -58.68423,-6.98696 -20.08579,0 -53.24271,6.98696 -53.24271,6.98696 v 63.84296 h 111.92694 z"
       sodipodi:nodetypes="czcccc" />
    <path
       id="rect8-1-1"
       style="fill:#5894f1;fill-opacity:1;stroke:#5894f1;stroke-width:5.3;stroke-linecap:round;stroke-linejoin:round;stroke-opacity:1"
       d="m 649.36634,168.23714 c -23.27192,0.0686 -40.57449,0.32543 -52.39629,6.57328 -11.02189,9.18587 -17.36881,15.65663 -19.82639,24.2522 11.54765,5.8714 23.32551,5.03264 35.89304,-1.15231 12.56753,-6.18495 28.68077,-7.89558 36.32964,-29.67317 z"
       sodipodi:nodetypes="ccccc" />
    <path
       id="rect2-5-6"
       style="fill:#5894f1;fill-opacity:1;stroke:#000000;stroke-width:4.12282;stroke-linecap:round;stroke-linejoin:round"
       d="m 681.82778,355.23518 -93.293,0.8379 c -6.72506,0.0604 -17.8736,0.51915 -17.8736,0.51915 -7.05412,-0.8677 -6.77059,9.72453 -0.0452,9.72453 h 128.27438 c 2.42568,0 4.75734,-10.25744 -0.0645,-10.89054 0,0 -10.60877,-0.24843 -16.99806,-0.19104 z"
       sodipodi:nodetypes="sssssss" />
    <path
       id="rect1-7-1-3"
       style="fill:none;stroke:#000000;stroke-width:3.64724;stroke-linecap:round;stroke-linejoin:round"
       d="m 821.57409,163.4161 h -28.02212 c -25.4529,0 -45.9192,20.49098 -45.9439,45.94387 l -0.123,126.91243 c -0.022,22.25406 -3.6801,19.32542 21.7727,19.41084 l 76.24052,0.25586 c 25.4527,0.0854 21.8756,2.11345 21.8967,-19.6667 l 0.123,-126.91243 c 0.025,-25.45289 -20.491,-45.94387 -45.9439,-45.94387 z"
       sodipodi:nodetypes="sssssssss" />
    <path
       style="fill:none;stroke:#000000;stroke-width:6;stroke-linecap:butt;stroke-linejoin:miter;stroke-dasharray:none;stroke-opacity:1"
       d="M 846.02389,367.79456 V 551.70511"
       id="path1-3-0-7"
       sodipodi:nodetypes="cc" />
    <path
       style="fill:none;stroke:#000000;stroke-width:6.78834;stroke-linecap:butt;stroke-linejoin:miter;stroke-dasharray:none;stroke-opacity:1"
       d="M 821.37489,363.2232 V 598.63685"
       id="path1-6-6-6-4"
       sodipodi:nodetypes="cc" />
    <path
       style="fill:none;stroke:#000000;stroke-width:6;stroke-linecap:butt;stroke-linejoin:miter;stroke-dasharray:none;stroke-opacity:1;marker-end:url(#TriangleStart)"
       d="M 793.46017,364.69365 V 548.6042"
       id="path1-2-1-3-5"
       sodipodi:nodetypes="cc" />
    <path
       style="fill:none;stroke:#000000;stroke-width:6;stroke-linecap:butt;stroke-linejoin:miter;stroke-dasharray:none;stroke-opacity:1"
       d="M 767.38137,366.07066 V 549.98121"
       id="path1-7-2-2-2"
       sodipodi:nodetypes="cc" />
    <path
       id="rect7-6-9-0-5"
       style="fill:#55d400;fill-opacity:1;stroke:#55d400;stroke-width:6.46578;stroke-linecap:round;stroke-linejoin:round;stroke-opacity:1"
       d="m 861.79049,198.40462 c 0,0 -4.7264,-14.35633 -16.6725,-22.39845 -11.9461,-8.04213 -25.3825,-8.66 -35.302,-8.66 -9.91962,0 -30.44402,-1.05604 -43.81012,9.98872 -10.3381,8.5427 -13.4571,22.79056 -13.4571,22.79056 l -1.051,81.77843 h 110.55222 z"
       sodipodi:nodetypes="cssscccc" />
    <path
       id="rect7-3-6-4"
       style="fill:#b3ff80;fill-opacity:1;stroke:#b3ff80;stroke-width:5.09104;stroke-linecap:round;stroke-linejoin:round;stroke-opacity:1"
       d="m 863.57349,286.94445 c 0,0 -38.5984,-6.98696 -58.6842,-6.98696 -20.08582,0 -53.24272,6.98696 -53.24272,6.98696 v 63.84296 h 111.92692 z"
       sodipodi:nodetypes="czcccc" />
    <path
       id="rect8-1-1-7"
       style="fill:#b3ff80;fill-opacity:1;stroke:#b3ff80;stroke-width:5.3;stroke-linecap:round;stroke-linejoin:round;stroke-opacity:1"
       d="m 823.67879,167.79234 c -23.27192,0.0686 -40.57452,0.32543 -52.39632,6.57328 -11.0218,9.18587 -17.3688,15.65663 -19.8263,24.2522 11.5476,5.8714 23.3255,5.03264 35.893,-1.15231 12.5675,-6.18495 28.68082,-7.89558 36.32962,-29.67317 z"
       sodipodi:nodetypes="ccccc" />
    <path
       id="rect2-5-6-7"
       style="fill:#b3ff80;fill-opacity:1;stroke:#000000;stroke-width:4.1803;stroke-linecap:round;stroke-linejoin:round"
       d="m 857.75426,354.8191 -96.41259,0.83355 c -6.9499,0.0601 -18.4711,0.51646 -18.4711,0.51646 -7.2901,-0.8632 -6.9971,9.67409 -0.046,9.67409 h 132.56337 c 2.50672,0 4.91636,-10.20423 -0.0662,-10.83406 0,0 -10.96353,-0.24713 -17.56641,-0.19004 z"
       sodipodi:nodetypes="sssssss" />
    <text
       xml:space="preserve"
       style="font-size:24px;line-height:1.25;font-family:sans-serif;letter-spacing:0px;word-spacing:0px"
       x="1008.2761"
       y="593.60797"
       id="text1013"><tspan
         sodipodi:role="line"
         id="tspan1011"
         x="1008.2761"
         y="593.60797">red</tspan></text>
    <text
       xml:space="preserve"
       style="font-size:24px;line-height:1.25;font-family:sans-serif;letter-spacing:0px;word-spacing:0px"
       x="972.21509"
       y="620.56378"
       id="text1013-6"><tspan
         sodipodi:role="line"
         id="tspan1011-7"
         x="972.21509"
         y="620.56378">GND</tspan></text>
    <text
       xml:space="preserve"
       style="font-size:24px;line-height:1.25;font-family:sans-serif;letter-spacing:0px;word-spacing:0px"
       x="620.38855"
       y="620.32471"
       id="text1013-6-7"><tspan
         sodipodi:role="line"
         id="tspan1011-7-0"
         x="620.38855"
         y="620.32471">GND</tspan></text>
    <text
       xml:space="preserve"
       style="font-size:24px;line-height:1.25;font-family:sans-serif;letter-spacing:0px;word-spacing:0px"
       x="795.36969"
       y="620.18573"
       id="text1013-6-9"><tspan
         sodipodi:role="line"
         id="tspan1011-7-3"
         x="795.36969"
         y="620.18573">GND</tspan></text>
    <text
       xml:space="preserve"
       style="font-size:24px;line-height:1.25;font-family:sans-serif;letter-spacing:0px;word-spacing:0px"
       x="406.50638"
       y="614.31134"
       id="text1013-6-7-6"><tspan
         sodipodi:role="line"
         id="tspan1011-7-0-0"
         x="406.50638"
         y="614.31134">common </tspan><tspan
         sodipodi:role="line"
         x="406.50638"
         y="644.31134"
         id="tspan1936" /></text>
    <text
       xml:space="preserve"
       style="font-size:24px;line-height:1.25;font-family:sans-serif;letter-spacing:0px;word-spacing:0px"
       x="567.25568"
       y="593.91315"
       id="text1013-62"><tspan
         sodipodi:role="line"
         id="tspan1011-6"
         x="567.25568"
         y="593.91315">blue</tspan></text>
    <text
       xml:space="preserve"
       style="font-size:24px;line-height:1.25;font-family:sans-serif;letter-spacing:0px;word-spacing:0px"
       x="744.82373"
       y="593.91315"
       id="text1013-62-1"><tspan
         sodipodi:role="line"
         id="tspan1011-6-8"
         x="744.82373"
         y="593.91315">green</tspan></text>
    <text
       xml:space="preserve"
       style="font-size:24px;line-height:1.25;font-family:sans-serif;letter-spacing:0px;word-spacing:0px"
       x="410.27936"
       y="634.91302"
       id="text1940"><tspan
         sodipodi:role="line"
         id="tspan1938"
         x="410.27936"
         y="634.91302">cathode</tspan></text>
    <text
       xml:space="preserve"
       style="font-size:24px;line-height:1.25;font-family:sans-serif;letter-spacing:0px;word-spacing:0px"
       x="398.19095"
       y="574.1767"
       id="text1944"><tspan
         sodipodi:role="line"
         id="tspan1942"
         x="398.19095"
         y="574.1767">1</tspan></text>
    <text
       xml:space="preserve"
       style="font-size:24px;line-height:1.25;font-family:sans-serif;letter-spacing:0px;word-spacing:0px"
       x="425.13678"
       y="575.40265"
       id="text1948"><tspan
         sodipodi:role="line"
         id="tspan1946"
         x="425.13678"
         y="575.40265">2</tspan></text>
    <text
       xml:space="preserve"
       style="font-size:24px;line-height:1.25;font-family:sans-serif;letter-spacing:0px;word-spacing:0px"
       x="477.08182"
       y="574.20087"
       id="text1952"><tspan
         sodipodi:role="line"
         id="tspan1950"
         x="477.08182"
         y="574.20087">3</tspan></text>
  </g>
</svg>
