<?xml version="1.0" encoding="UTF-8" standalone="no"?>
<!-- Created with Inkscape (http://www.inkscape.org/) -->

<svg
   width="700.54956"
   height="512.06555"
   viewBox="0 0 700.54956 512.06555"
   version="1.1"
   id="svg1"
   inkscape:version="1.3 (0e150ed6c4, 2023-07-21)"
   sodipodi:docname="Github_LED_Grafiken.svg"
   xml:space="preserve"
   xmlns:inkscape="http://www.inkscape.org/namespaces/inkscape"
   xmlns:sodipodi="http://sodipodi.sourceforge.net/DTD/sodipodi-0.dtd"
   xmlns="http://www.w3.org/2000/svg"
   xmlns:svg="http://www.w3.org/2000/svg"><sodipodi:namedview
     id="namedview1"
     pagecolor="#ffffff"
     bordercolor="#666666"
     borderopacity="1.0"
     inkscape:showpageshadow="2"
     inkscape:pageopacity="0.0"
     inkscape:pagecheckerboard="0"
     inkscape:deskcolor="#d1d1d1"
     inkscape:document-units="px"
     showguides="true"
     inkscape:zoom="0.515"
     inkscape:cx="951.45631"
     inkscape:cy="766.01942"
     inkscape:window-width="1920"
     inkscape:window-height="1172"
     inkscape:window-x="0"
     inkscape:window-y="0"
     inkscape:window-maximized="1"
     inkscape:current-layer="layer1"
     showgrid="false"><inkscape:grid
       id="grid2"
       units="px"
       originx="-616.71387"
       originy="-508.14792"
       spacingx="1"
       spacingy="1"
       empcolor="#3f3fff"
       empopacity="0.25098039"
       color="#3f3fff"
       opacity="0.1254902"
       empspacing="5"
       dotted="false"
       gridanglex="30"
       gridanglez="30"
       visible="false" /></sodipodi:namedview><defs
     id="defs1"><marker
       style="overflow:visible"
       id="marker20"
       refX="0.076800093"
       refY="0.28517053"
       orient="auto-start-reverse"
       inkscape:stockid="Rounded arrow"
       markerWidth="0.73710066"
       markerHeight="0.71705389"
       viewBox="0 0 1 1"
       inkscape:isstock="true"
       inkscape:collect="always"
       preserveAspectRatio="none"><path
         transform="scale(0.7)"
         d="m -0.21114562,-4.1055728 6.42229122,3.21114561 a 1,1 90 0 1 0,1.78885438 L -0.21114562,4.1055728 A 1.236068,1.236068 31.717474 0 1 -2,3 v -6 a 1.236068,1.236068 148.28253 0 1 1.78885438,-1.1055728 z"
         style="fill:context-stroke;fill-rule:evenodd;stroke:none"
         id="path20" /></marker><marker
       style="overflow:visible"
       id="RoundedArrow"
       refX="-0.033403177"
       refY="0.13553807"
       orient="auto"
       inkscape:stockid="Rounded arrow"
       markerWidth="0.83083618"
       markerHeight="0.75830859"
       viewBox="0 0 1 1"
       inkscape:isstock="true"
       inkscape:collect="always"
       preserveAspectRatio="none"><path
         transform="scale(0.7)"
         d="m -0.21114562,-4.1055728 6.42229122,3.21114561 a 1,1 90 0 1 0,1.78885438 L -0.21114562,4.1055728 A 1.236068,1.236068 31.717474 0 1 -2,3 v -6 a 1.236068,1.236068 148.28253 0 1 1.78885438,-1.1055728 z"
         style="fill:context-stroke;fill-rule:evenodd;stroke:none"
         id="path8" /></marker></defs><g
     inkscape:label="Ebene 1"
     inkscape:groupmode="layer"
     id="layer1"
     transform="translate(-616.71387,-508.14792)"><path
       id="rect1"
       style="fill:none;stroke:#999999;stroke-width:3.64724;stroke-linecap:round;stroke-linejoin:round"
       d="m 664.51999,512.42552 h 28.02213 c 25.4529,0 45.9192,20.49098 45.94387,45.94387 l 0.12301,126.91243 c 0.0216,22.25406 3.68006,19.32542 -21.77269,19.41084 l -76.24049,0.25586 c -25.45275,0.0854 -21.87558,2.11345 -21.89669,-19.6667 l -0.12301,-126.91243 c -0.0247,-25.45289 20.49097,-45.94387 45.94387,-45.94387 z"
       sodipodi:nodetypes="sssssssss"
       inkscape:export-filename="LEDs.svg"
       inkscape:export-xdpi="198"
       inkscape:export-ydpi="198" /><path
       style="fill:none;stroke:#000000;stroke-width:6;stroke-linecap:butt;stroke-linejoin:miter;stroke-dasharray:none;stroke-opacity:1"
       d="M 640.0702,716.80398 V 896.92436"
       id="path1"
       sodipodi:nodetypes="cc" /><path
       style="fill:none;stroke:#000000;stroke-width:6.78834;stroke-linecap:butt;stroke-linejoin:miter;stroke-dasharray:none;stroke-opacity:1"
       d="M 664.71916,712.23262 V 896.92436"
       id="path1-6"
       sodipodi:nodetypes="cc" /><path
       style="fill:none;stroke:#000000;stroke-width:6.2515;stroke-linecap:butt;stroke-linejoin:miter;stroke-dasharray:none;stroke-opacity:1"
       d="M 692.63386,715.9131 V 966.92436"
       id="path1-2"
       sodipodi:nodetypes="cc" /><path
       style="fill:none;stroke:#000000;stroke-width:6;stroke-linecap:butt;stroke-linejoin:miter;stroke-dasharray:none;stroke-opacity:1"
       d="m 718.71268,715.08008 -0.99352,183.91055"
       id="path1-7"
       sodipodi:nodetypes="cc" /><path
       id="rect7-6"
       style="fill:#cccccc;stroke:#cccccc;stroke-width:6.46578;stroke-linecap:round;stroke-linejoin:round"
       d="m 624.30357,547.41404 c 0,0 4.72641,-14.35633 16.67253,-22.39845 11.94612,-8.04213 25.38248,-8.66 35.30202,-8.66 9.91954,0 30.44399,-1.05604 43.81006,9.98872 10.33815,8.5427 13.4571,22.79056 13.4571,22.79056 l 1.05106,81.77843 h -110.5522 z"
       sodipodi:nodetypes="cssscccc" /><path
       id="rect7"
       style="fill:#e6e6e6;stroke:#e6e6e6;stroke-width:5.09104;stroke-linecap:round;stroke-linejoin:round"
       d="m 622.52058,635.95387 c 0,0 38.59844,-6.98696 58.68423,-6.98696 20.08579,0 53.24271,6.98696 53.24271,6.98696 v 63.84296 H 622.52058 Z"
       sodipodi:nodetypes="czcccc" /><path
       id="rect8"
       style="fill:#e6e6e6;stroke:#e6e6e6;stroke-width:5.3;stroke-linecap:round;stroke-linejoin:round"
       d="m 662.41526,516.80176 c 23.27192,0.0686 40.57449,0.32543 52.39629,6.57328 11.02189,9.18587 17.36881,15.65663 19.82639,24.2522 -11.54765,5.8714 -23.32551,5.03264 -35.89304,-1.15231 -12.56753,-6.18495 -28.68077,-7.89558 -36.32964,-29.67317 z"
       sodipodi:nodetypes="ccccc" /><path
       id="rect2"
       style="fill:#ececec;stroke:#999999;stroke-width:3.89404;stroke-linecap:round;stroke-linejoin:round"
       d="m 636.03353,703.68549 81.54253,0.8552 c 5.87803,0.0617 15.62238,0.52987 15.62238,0.52987 6.16564,-0.88562 5.91782,9.92531 0.0395,9.92531 H 621.12002 c -2.12015,0 -4.15814,-10.46922 0.0564,-11.1154 0,0 9.27257,-0.25355 14.85711,-0.19498 z"
       sodipodi:nodetypes="sssssss" /><path
       id="rect1-7"
       style="fill:none;stroke:#ff5555;stroke-width:3.64724;stroke-linecap:round;stroke-linejoin:round"
       d="m 849.70476,509.97153 h 28.02213 c 25.4529,0 45.9192,20.49098 45.94387,45.94387 l 0.12301,126.91243 c 0.0216,22.25406 3.68006,19.32542 -21.77269,19.41084 l -76.24049,0.25586 c -25.45275,0.0854 -21.87558,2.11345 -21.89669,-19.6667 L 803.76089,555.9154 c -0.0247,-25.45289 20.49097,-45.94387 45.94387,-45.94387 z"
       sodipodi:nodetypes="sssssssss" /><path
       style="fill:none;stroke:#000000;stroke-width:6;stroke-linecap:round;stroke-linejoin:round;stroke-dasharray:none;stroke-opacity:1;marker-end:url(#RoundedArrow)"
       d="M 825.25497,714.34999 V 896.92436"
       id="path1-3"
       sodipodi:nodetypes="cc" /><path
       style="fill:none;stroke:#000000;stroke-width:6.78834;stroke-linecap:butt;stroke-linejoin:miter;stroke-dasharray:none;stroke-opacity:1"
       d="m 849.90393,709.77863 0.197,186.1984"
       id="path1-6-6"
       sodipodi:nodetypes="cc" /><path
       style="fill:none;stroke:#000000;stroke-width:6.2515;stroke-linecap:butt;stroke-linejoin:miter;stroke-dasharray:none;stroke-opacity:1"
       d="M 877.81863,713.24908 V 966.92436"
       id="path1-2-1"
       sodipodi:nodetypes="cc" /><path
       style="fill:none;stroke:#000000;stroke-width:6;stroke-linecap:butt;stroke-linejoin:miter;stroke-dasharray:none;stroke-opacity:1"
       d="M 903.89745,712.62609 V 896.53664"
       id="path1-7-2"
       sodipodi:nodetypes="cc" /><path
       id="rect7-6-9"
       style="fill:#ff5555;stroke:#ff5555;stroke-width:6.5243;stroke-linecap:round;stroke-linejoin:round"
       d="m 808.62748,544.67283 c 0,0 4.81481,-14.34898 16.98437,-22.38699 12.16957,-8.03802 25.85725,-8.65557 35.96232,-8.65557 10.10508,0 31.01343,-1.0555 44.6295,9.98361 10.53152,8.53833 13.70881,22.7789 13.70881,22.7789 l 1.07072,81.73659 H 808.36319 Z"
       sodipodi:nodetypes="cssscccc" /><path
       id="rect7-3"
       style="fill:#ff8080;stroke:#ff8080;stroke-width:5.09104;stroke-linecap:round;stroke-linejoin:round"
       d="m 807.70535,633.49988 c 0,0 38.59844,-6.98696 58.68423,-6.98696 20.08579,0 53.24271,6.98696 53.24271,6.98696 v 63.84296 H 807.70535 Z"
       sodipodi:nodetypes="czcccc" /><path
       id="rect8-1"
       style="fill:#ff8080;stroke:#ff8080;stroke-width:5.3;stroke-linecap:round;stroke-linejoin:round"
       d="m 847.60003,514.34777 c 23.27192,0.0686 40.57449,0.32543 52.39629,6.57328 11.02189,9.18587 17.36881,15.65663 19.82639,24.2522 -11.54765,5.8714 -23.32551,5.03264 -35.89304,-1.15231 -12.56753,-6.18495 -28.68077,-7.89558 -36.32964,-29.67317 z"
       sodipodi:nodetypes="ccccc" /><path
       id="rect2-5"
       style="fill:#ff8080;stroke:#ff5555;stroke-width:3.89404;stroke-linecap:round;stroke-linejoin:round"
       d="m 821.2183,701.2315 81.54253,0.8552 c 5.87803,0.0617 15.62238,0.52987 15.62238,0.52987 6.16564,-0.88562 5.91782,9.92531 0.0395,9.92531 H 806.30479 c -2.12015,0 -4.15814,-10.46922 0.0564,-11.1154 0,0 9.27257,-0.25355 14.85711,-0.19498 z"
       sodipodi:nodetypes="sssssss" /><path
       id="rect1-7-1"
       style="fill:none;stroke:#2774ed;stroke-width:3.64724;stroke-linecap:round;stroke-linejoin:round;stroke-opacity:1"
       d="m 1035.5735,512.78526 h 28.0222 c 25.4529,0 45.9192,20.49098 45.9438,45.94387 l 0.1231,126.91243 c 0.022,22.25406 3.68,19.32542 -21.7727,19.41084 l -76.2405,0.25586 c -25.45278,0.0854 -21.87561,2.11345 -21.89672,-19.6667 l -0.12301,-126.91243 c -0.0247,-25.45289 20.49093,-45.94387 45.94383,-45.94387 z"
       sodipodi:nodetypes="sssssssss" /><path
       style="fill:none;stroke:#000000;stroke-width:6;stroke-linecap:butt;stroke-linejoin:miter;stroke-dasharray:none;stroke-opacity:1"
       d="m 1011.1238,717.16372 1.2143,180.14357"
       id="path1-3-0"
       sodipodi:nodetypes="cc" /><path
       style="fill:none;stroke:#000000;stroke-width:6.78834;stroke-linecap:butt;stroke-linejoin:miter;stroke-dasharray:none;stroke-opacity:1;marker-end:url(#marker20)"
       d="m 1035.7727,712.59236 v 184.332"
       id="path1-6-6-6"
       sodipodi:nodetypes="cc" /><path
       style="fill:none;stroke:#000000;stroke-width:6.2515;stroke-linecap:butt;stroke-linejoin:miter;stroke-dasharray:none;stroke-opacity:1"
       d="m 1063.6874,716.30363 -0.1428,252.64467"
       id="path1-2-1-3"
       sodipodi:nodetypes="cc" /><path
       style="fill:none;stroke:#000000;stroke-width:6;stroke-linecap:butt;stroke-linejoin:miter;stroke-dasharray:none;stroke-opacity:1"
       d="M 1089.7662,715.43982 1088.751,897.1383"
       id="path1-7-2-2"
       sodipodi:nodetypes="cc" /><path
       style="fill:none;stroke:#000000;stroke-width:6;stroke-linecap:butt;stroke-linejoin:miter;stroke-dasharray:none;stroke-opacity:1"
       d="m 1190.4585,717.16372 1.2144,180.14357"
       id="path1-3-0-5"
       sodipodi:nodetypes="cc" /><path
       style="fill:none;stroke:#000000;stroke-width:6;stroke-linecap:butt;stroke-linejoin:miter;stroke-dasharray:none;stroke-opacity:1"
       d="m 1214.5048,716.78079 1.2144,180.14357"
       id="path1-3-0-5-9"
       sodipodi:nodetypes="cc" /><path
       style="fill:none;stroke:#000000;stroke-width:6.2515;stroke-linecap:butt;stroke-linejoin:miter;stroke-dasharray:none;stroke-opacity:1"
       d="m 1243.0222,716.30363 -0.1428,252.64467"
       id="path1-2-1-3-9"
       sodipodi:nodetypes="cc" /><path
       style="fill:none;stroke:#000000;stroke-width:6;stroke-linecap:butt;stroke-linejoin:miter;stroke-dasharray:none;stroke-opacity:1;marker-end:url(#RoundedArrow)"
       d="m 1269.1011,715.43982 -1.0152,181.69848"
       id="path1-7-2-2-7"
       sodipodi:nodetypes="cc" /><path
       id="rect7-6-9-0"
       style="fill:#2774ed;fill-opacity:1;stroke:#2774ed;stroke-width:6.5038;stroke-linecap:round;stroke-linejoin:round;stroke-opacity:1"
       d="m 993.99999,547.78249 c 0,0 4.78373,-14.35156 16.87491,-22.39101 12.091,-8.03945 25.6903,-8.65712 35.7303,-8.65712 10.0398,0 30.8133,-1.05569 44.3415,9.9854 10.4636,8.53986 13.6204,22.78299 13.6204,22.78299 l 1.0638,81.75124 H 993.73742 Z"
       sodipodi:nodetypes="cssscccc" /><path
       id="rect7-3-6"
       style="fill:#5894f1;fill-opacity:1;stroke:#5894f1;stroke-width:5.19726;stroke-linecap:round;stroke-linejoin:round;stroke-opacity:1"
       d="m 993.62724,636.66825 c 0,0 38.56186,-7.28849 58.62856,-7.28849 20.0668,0 53.1922,7.28849 53.1922,7.28849 v 66.59811 H 993.62724 Z"
       sodipodi:nodetypes="czcccc" /><path
       id="rect8-1-1"
       style="fill:#5894f1;fill-opacity:1;stroke:#5894f1;stroke-width:5.3;stroke-linecap:round;stroke-linejoin:round;stroke-opacity:1"
       d="m 1033.4688,517.1615 c 23.2719,0.0686 40.5745,0.32543 52.3963,6.57328 11.0219,9.18587 17.3688,15.65663 19.8264,24.2522 -11.5477,5.8714 -23.3255,5.03264 -35.893,-1.15231 -12.5676,-6.18495 -28.6808,-7.89558 -36.3297,-29.67317 z"
       sodipodi:nodetypes="ccccc" /><path
       id="rect2-5-6"
       style="fill:#5894f1;fill-opacity:1;stroke:#2774ed;stroke-width:3.89404;stroke-linecap:round;stroke-linejoin:round;stroke-opacity:1"
       d="m 1007.0871,704.04523 81.5425,0.8552 c 5.878,0.0617 15.6224,0.52987 15.6224,0.52987 6.1656,-0.88562 5.9178,9.92531 0.04,9.92531 H 992.17357 c -2.12015,0 -4.15814,-10.46922 0.0564,-11.1154 0,0 9.27253,-0.25355 14.85713,-0.19498 z"
       sodipodi:nodetypes="sssssss" /><path
       id="rect1-7-1-3"
       style="fill:none;stroke:#55d400;stroke-width:3.64724;stroke-linecap:round;stroke-linejoin:round"
       d="m 1213.8866,514.34046 h 28.0221 c 25.453,0 45.9193,20.49098 45.944,45.94387 l 0.123,126.91243 c 0.022,22.25406 3.6801,19.32542 -21.7727,19.41084 l -76.2406,0.25586 c -25.4527,0.0854 -21.8756,2.11345 -21.8967,-19.6667 l -0.123,-126.91243 c -0.025,-25.45289 20.491,-45.94387 45.9439,-45.94387 z"
       sodipodi:nodetypes="sssssssss" /><path
       id="rect7-6-9-0-5"
       style="fill:#55d400;fill-opacity:1;stroke:#55d400;stroke-width:6.53099;stroke-linecap:round;stroke-linejoin:round;stroke-opacity:1"
       d="m 1171.3376,549.34391 c 0,0 4.825,-14.34815 17.0203,-22.38568 12.1952,-8.03754 25.9117,-8.65506 36.0382,-8.65506 10.1264,0 31.0789,-1.05544 44.7237,9.98302 10.5537,8.53783 13.7377,22.77757 13.7377,22.77757 l 1.073,81.73182 h -112.8577 z"
       sodipodi:nodetypes="cssscccc" /><path
       id="rect7-3-6-4"
       style="fill:#b3ff80;fill-opacity:1;stroke:#b3ff80;stroke-width:5.09104;stroke-linecap:round;stroke-linejoin:round;stroke-opacity:1"
       d="m 1171.8872,637.86881 c 0,0 38.5984,-6.98696 58.6842,-6.98696 20.0859,0 53.2428,6.98696 53.2428,6.98696 v 63.84296 h -111.927 z"
       sodipodi:nodetypes="czcccc" /><path
       id="rect8-1-1-7"
       style="fill:#b3ff80;fill-opacity:1;stroke:#b3ff80;stroke-width:5.3;stroke-linecap:round;stroke-linejoin:round;stroke-opacity:1"
       d="m 1211.7819,518.7167 c 23.2719,0.0686 40.5746,0.32543 52.3964,6.57328 11.0218,9.18587 17.3688,15.65663 19.8263,24.2522 -11.5476,5.8714 -23.3255,5.03264 -35.893,-1.15231 -12.5676,-6.18495 -28.6809,-7.89558 -36.3297,-29.67317 z"
       sodipodi:nodetypes="ccccc" /><path
       id="rect2-5-6-7"
       style="fill:#b3ff80;stroke:#55d400;stroke-width:3.89404;stroke-linecap:round;stroke-linejoin:round"
       d="m 1185.4001,705.60043 81.5427,0.8552 c 5.878,0.0617 15.6223,0.52987 15.6223,0.52987 6.1657,-0.88562 5.9179,9.92531 0.039,9.92531 h -112.118 c -2.1201,0 -4.1581,-10.46922 0.056,-11.1154 0,0 9.2726,-0.25355 14.8571,-0.19498 z"
       sodipodi:nodetypes="ssssssss" /><text
       xml:space="preserve"
       style="font-style:normal;font-weight:normal;font-size:26.6667px;line-height:1.25;font-family:sans-serif;letter-spacing:0px;word-spacing:0px;white-space:pre;inline-size:0;fill:#000000;fill-opacity:1;stroke:none"
       x="280"
       y="980"
       id="text17"
       transform="translate(350.17436,-54.115973)"><tspan
         id="tspan17"
         x="280"
         y="980"
         style="font-style:normal;font-variant:normal;font-weight:normal;font-stretch:normal;font-size:26.6667px;font-family:Likhan;-inkscape-font-specification:Likhan">1</tspan></text><text
       xml:space="preserve"
       style="font-style:normal;font-weight:normal;font-size:26.6667px;line-height:1.25;font-family:sans-serif;letter-spacing:0px;word-spacing:0px;white-space:pre;inline-size:0;fill:#000000;fill-opacity:1;stroke:none"
       x="280"
       y="980"
       id="text17-3"
       transform="translate(378.82078,-54.115973)"><tspan
         id="tspan17-3"
         x="280"
         y="980"
         style="font-style:normal;font-variant:normal;font-weight:normal;font-stretch:normal;font-size:26.6667px;font-family:Likhan;-inkscape-font-specification:Likhan">2</tspan></text><text
       xml:space="preserve"
       style="font-style:normal;font-weight:normal;font-size:32px;line-height:0.95;font-family:sans-serif;letter-spacing:0px;word-spacing:0px;white-space:pre;inline-size:0;fill:#000000;fill-opacity:1;stroke:none"
       x="360.43906"
       y="980"
       id="text17-4"
       transform="translate(415.54851,9.113883)"><tspan
         sodipodi:role="line"
         id="tspan19"
         x="280"
         y="980"
         style="font-style:normal;font-variant:normal;font-weight:normal;font-stretch:normal;font-size:32px;line-height:0.95;font-family:Cantarell;-inkscape-font-specification:Cantarell;text-align:center;text-anchor:middle"><tspan
           id="tspan17-8"
           x="280"
           y="980"
           style="font-style:normal;font-variant:normal;font-weight:normal;font-stretch:normal;font-size:32px;line-height:0.95;font-family:Cantarell;-inkscape-font-specification:Cantarell;text-align:center;text-anchor:middle">common</tspan></tspan><tspan
         sodipodi:role="line"
         x="280"
         y="1010.7796"
         id="tspan20"
         style="font-style:normal;font-variant:normal;font-weight:normal;font-stretch:normal;font-size:32px;line-height:0.95;font-family:Cantarell;-inkscape-font-specification:Cantarell;text-align:center;text-anchor:middle">cathode</tspan></text><text
       xml:space="preserve"
       style="font-style:normal;font-weight:normal;font-size:32px;line-height:0.95;font-family:sans-serif;letter-spacing:0px;word-spacing:0px;white-space:pre;inline-size:0;fill:#000000;fill-opacity:1;stroke:none"
       x="360.43906"
       y="980"
       id="text17-4-5"
       transform="translate(516.63095,15.113883)"><tspan
         sodipodi:role="line"
         x="360.43906"
         y="980"
         id="tspan20-1"
         style="font-style:normal;font-variant:normal;font-weight:normal;font-stretch:normal;font-size:32px;line-height:0.95;font-family:Cantarell;-inkscape-font-specification:Cantarell;text-align:center;text-anchor:middle">GND</tspan></text><text
       xml:space="preserve"
       style="font-style:normal;font-weight:normal;font-size:26.6667px;line-height:0.95;font-family:sans-serif;letter-spacing:0px;word-spacing:0px;white-space:pre;inline-size:0;fill:#000000;fill-opacity:1;stroke:none"
       x="360.43906"
       y="980"
       id="text17-4-5-6"
       transform="translate(464.85348,-34.32895)"><tspan
         sodipodi:role="line"
         x="360.43906"
         y="980"
         id="tspan20-1-4"
         style="font-style:normal;font-variant:normal;font-weight:normal;font-stretch:normal;font-size:26.6667px;line-height:0.95;font-family:Cantarell;-inkscape-font-specification:Cantarell;text-align:center;text-anchor:middle">red</tspan></text><text
       xml:space="preserve"
       style="font-style:normal;font-weight:normal;font-size:26.6667px;line-height:0.95;font-family:sans-serif;letter-spacing:0px;word-spacing:0px;white-space:pre;inline-size:0;fill:#000000;fill-opacity:1;stroke:none"
       x="360.43906"
       y="980"
       id="text17-4-5-6-2"
       transform="translate(667.2801,-33.07564)"><tspan
         sodipodi:role="line"
         x="360.43906"
         y="980"
         id="tspan20-1-4-8"
         style="font-style:normal;font-variant:normal;font-weight:normal;font-stretch:normal;font-size:26.6667px;line-height:0.95;font-family:Cantarell;-inkscape-font-specification:Cantarell;text-align:center;text-anchor:middle">blue</tspan></text><text
       xml:space="preserve"
       style="font-style:normal;font-weight:normal;font-size:26.6667px;line-height:0.95;font-family:sans-serif;letter-spacing:0px;word-spacing:0px;white-space:pre;inline-size:0;fill:#000000;fill-opacity:1;stroke:none"
       x="360.43906"
       y="980"
       id="text17-4-5-6-2-4"
       transform="translate(924.55761,-34.862314)"><tspan
         sodipodi:role="line"
         x="360.43906"
         y="980"
         id="tspan20-1-4-8-0"
         style="font-style:normal;font-variant:normal;font-weight:normal;font-stretch:normal;font-size:26.6667px;line-height:0.95;font-family:Cantarell;-inkscape-font-specification:Cantarell;text-align:center;text-anchor:middle">green</tspan></text><text
       xml:space="preserve"
       style="font-style:normal;font-weight:normal;font-size:32px;line-height:0.95;font-family:sans-serif;letter-spacing:0px;word-spacing:0px;white-space:pre;inline-size:0;fill:#000000;fill-opacity:1;stroke:none"
       x="360.43906"
       y="980"
       id="text17-4-5-3"
       transform="translate(697.23913,15.113883)"><tspan
         sodipodi:role="line"
         x="360.43906"
         y="980"
         id="tspan20-1-6"
         style="font-style:normal;font-variant:normal;font-weight:normal;font-stretch:normal;font-size:32px;line-height:0.95;font-family:Cantarell;-inkscape-font-specification:Cantarell;text-align:center;text-anchor:middle">GND</tspan></text><text
       xml:space="preserve"
       style="font-style:normal;font-weight:normal;font-size:32px;line-height:0.95;font-family:sans-serif;letter-spacing:0px;word-spacing:0px;white-space:pre;inline-size:0;fill:#000000;fill-opacity:1;stroke:none"
       x="360.43906"
       y="980"
       id="text17-4-5-1"
       transform="translate(883.58315,14.02836)"><tspan
         sodipodi:role="line"
         x="360.43906"
         y="980"
         id="tspan20-1-0"
         style="font-style:normal;font-variant:normal;font-weight:normal;font-stretch:normal;font-size:32px;line-height:0.95;font-family:Cantarell;-inkscape-font-specification:Cantarell;text-align:center;text-anchor:middle">GND</tspan></text><text
       xml:space="preserve"
       style="font-style:normal;font-weight:normal;font-size:26.6667px;line-height:1.25;font-family:sans-serif;letter-spacing:0px;word-spacing:0px;white-space:pre;inline-size:0;fill:#000000;fill-opacity:1;stroke:none"
       x="280"
       y="980"
       id="text17-3-8"
       transform="translate(431.3168,-54.115973)"><tspan
         id="tspan17-3-8"
         x="280"
         y="980"
         style="font-style:normal;font-variant:normal;font-weight:normal;font-stretch:normal;font-size:26.6667px;font-family:Likhan;-inkscape-font-specification:Likhan">3</tspan></text></g></svg>
