<?xml version="1.0" encoding="UTF-8" standalone="no"?>
<!-- Created with Inkscape (http://www.inkscape.org/) -->

<svg
   width="706.91846"
   height="512.90918"
   viewBox="0 0 706.91846 512.90918"
   version="1.1"
   id="svg1"
   inkscape:version="1.2.2 (b0a8486541, 2022-12-01)"
   sodipodi:docname="RGB_LED.svg"
   xml:space="preserve"
   xmlns:inkscape="http://www.inkscape.org/namespaces/inkscape"
   xmlns:sodipodi="http://sodipodi.sourceforge.net/DTD/sodipodi-0.dtd"
   xmlns="http://www.w3.org/2000/svg"
   xmlns:svg="http://www.w3.org/2000/svg"><sodipodi:namedview
     id="namedview1"
     pagecolor="#ffffff"
     bordercolor="#666666"
     borderopacity="1.0"
     inkscape:showpageshadow="2"
     inkscape:pageopacity="0.0"
     inkscape:pagecheckerboard="0"
     inkscape:deskcolor="#d1d1d1"
     inkscape:document-units="px"
     showguides="true"
     inkscape:zoom="0.72831998"
     inkscape:cx="734.56724"
     inkscape:cy="422.89105"
     inkscape:window-width="1680"
     inkscape:window-height="997"
     inkscape:window-x="0"
     inkscape:window-y="0"
     inkscape:window-maximized="1"
     inkscape:current-layer="layer1"
     showgrid="true"><inkscape:grid
       id="grid2"
       units="px"
       originx="-610.34497"
       originy="-508.14792"
       spacingx="1"
       spacingy="1"
       empcolor="#3f3fff"
       empopacity="0.25098039"
       color="#3f3fff"
       opacity="0.1254902"
       empspacing="5"
       dotted="false"
       gridanglex="30"
       gridanglez="30"
       visible="true" /><sodipodi:guide
       position="215.11481,1164.7115"
       orientation="0,-1"
       id="guide17"
       inkscape:locked="false" /><sodipodi:guide
       position="402.81913,746.49316"
       orientation="0,-1"
       id="guide18"
       inkscape:locked="false" /><sodipodi:guide
       position="140.04833,532.1315"
       orientation="0,-1"
       id="guide364"
       inkscape:locked="false" /><sodipodi:guide
       position="233.41389,306.95575"
       orientation="0,-1"
       id="guide366"
       inkscape:locked="false" /><sodipodi:guide
       position="193.59623,182.01067"
       orientation="1,0"
       id="guide368"
       inkscape:locked="false" /><sodipodi:guide
       position="313.04922,138.07393"
       orientation="1,0"
       id="guide370"
       inkscape:locked="false" /><sodipodi:guide
       position="376.20827,66.676745"
       orientation="1,0"
       id="guide372"
       inkscape:locked="false" /><sodipodi:guide
       position="314.42224,7.6367612"
       orientation="1,0"
       id="guide374"
       inkscape:locked="false" /><sodipodi:guide
       position="498.40731,-17.077651"
       orientation="1,0"
       id="guide376"
       inkscape:locked="false" /><sodipodi:guide
       position="556.07427,95.510225"
       orientation="1,0"
       id="guide378"
       inkscape:locked="false" /><sodipodi:guide
       position="131.8102,74.914882"
       orientation="0,-1"
       id="guide380"
       inkscape:locked="false" /></sodipodi:namedview><defs
     id="defs1"><marker
       style="overflow:visible"
       id="marker20"
       refX="0.076800093"
       refY="0.28517053"
       orient="auto-start-reverse"
       inkscape:stockid="Rounded arrow"
       markerWidth="0.73710066"
       markerHeight="0.71705389"
       viewBox="0 0 1 1"
       inkscape:isstock="true"
       inkscape:collect="always"
       preserveAspectRatio="none"><path
         transform="scale(0.7)"
         d="m -0.21114562,-4.1055728 6.42229122,3.21114561 a 1,1 90 0 1 0,1.78885438 L -0.21114562,4.1055728 A 1.236068,1.236068 31.717474 0 1 -2,3 v -6 a 1.236068,1.236068 148.28253 0 1 1.78885438,-1.1055728 z"
         style="fill:context-stroke;fill-rule:evenodd;stroke:none"
         id="path20" /></marker><marker
       style="overflow:visible"
       id="RoundedArrow"
       refX="-0.033403177"
       refY="0.13553807"
       orient="auto"
       inkscape:stockid="Rounded arrow"
       markerWidth="0.83083618"
       markerHeight="0.75830859"
       viewBox="0 0 1 1"
       inkscape:isstock="true"
       inkscape:collect="always"
       preserveAspectRatio="none"><path
         transform="scale(0.7)"
         d="m -0.21114562,-4.1055728 6.42229122,3.21114561 a 1,1 90 0 1 0,1.78885438 L -0.21114562,4.1055728 A 1.236068,1.236068 31.717474 0 1 -2,3 v -6 a 1.236068,1.236068 148.28253 0 1 1.78885438,-1.1055728 z"
         style="fill:context-stroke;fill-rule:evenodd;stroke:none"
         id="path8" /></marker></defs><g
     inkscape:label="Ebene 1"
     inkscape:groupmode="layer"
     id="layer1"
     transform="translate(-610.34497,-508.14792)"><path
       id="rect1"
       style="fill:none;stroke:#999999;stroke-width:3.64724;stroke-linecap:round;stroke-linejoin:round"
       d="m 664.51999,512.42552 h 28.02213 c 25.4529,0 45.9192,20.49098 45.94387,45.94387 l 0.12301,126.91243 c 0.0216,22.25406 3.68006,19.32542 -21.77269,19.41084 l -76.24049,0.25586 c -25.45275,0.0854 -21.87558,2.11345 -21.89669,-19.6667 l -0.12301,-126.91243 c -0.0247,-25.45289 20.49097,-45.94387 45.94387,-45.94387 z"
       sodipodi:nodetypes="sssssssss"
       inkscape:export-filename="LEDs.svg"
       inkscape:export-xdpi="198"
       inkscape:export-ydpi="198" /><path
       style="fill:#808080;stroke:#808080;stroke-width:6;stroke-linecap:butt;stroke-linejoin:miter;stroke-dasharray:none;stroke-opacity:1"
       d="M 640.0702,716.80398 V 896.92436"
       id="path1"
       sodipodi:nodetypes="cc" /><path
       style="fill:none;stroke:#808080;stroke-width:6.78834;stroke-linecap:butt;stroke-linejoin:miter;stroke-dasharray:none;stroke-opacity:1"
       d="M 664.71916,712.23262 V 896.92436"
       id="path1-6"
       sodipodi:nodetypes="cc" /><path
       style="fill:#808080;stroke:#808080;stroke-width:6.2515;stroke-linecap:butt;stroke-linejoin:miter;stroke-dasharray:none;stroke-opacity:1"
       d="M 692.63386,715.9131 V 966.92436"
       id="path1-2"
       sodipodi:nodetypes="cc" /><path
       style="fill:none;stroke:#808080;stroke-width:6;stroke-linecap:butt;stroke-linejoin:miter;stroke-dasharray:none;stroke-opacity:1"
       d="m 718.71268,715.08008 -0.99352,183.91055"
       id="path1-7"
       sodipodi:nodetypes="cc" /><path
       id="rect7-6"
       style="fill:#cccccc;stroke:#cccccc;stroke-width:6.46578;stroke-linecap:round;stroke-linejoin:round"
       d="m 624.30357,547.41404 c 0,0 4.72641,-14.35633 16.67253,-22.39845 11.94612,-8.04213 25.38248,-8.66 35.30202,-8.66 9.91954,0 30.44399,-1.05604 43.81006,9.98872 10.33815,8.5427 13.4571,22.79056 13.4571,22.79056 l 1.05106,81.77843 h -110.5522 z"
       sodipodi:nodetypes="cssscccc" /><path
       id="rect7"
       style="fill:#e6e6e6;stroke:#e6e6e6;stroke-width:5.09104;stroke-linecap:round;stroke-linejoin:round"
       d="m 622.52058,635.95387 c 0,0 38.59844,-6.98696 58.68423,-6.98696 20.08579,0 53.24271,6.98696 53.24271,6.98696 v 63.84296 H 622.52058 Z"
       sodipodi:nodetypes="czcccc" /><path
       id="rect8"
       style="fill:#e6e6e6;stroke:#e6e6e6;stroke-width:5.3;stroke-linecap:round;stroke-linejoin:round"
       d="m 662.41526,516.80176 c 23.27192,0.0686 40.57449,0.32543 52.39629,6.57328 11.02189,9.18587 17.36881,15.65663 19.82639,24.2522 -11.54765,5.8714 -23.32551,5.03264 -35.89304,-1.15231 -12.56753,-6.18495 -28.68077,-7.89558 -36.32964,-29.67317 z"
       sodipodi:nodetypes="ccccc" /><path
       id="rect2"
       style="fill:#ececec;stroke:#999999;stroke-width:4.07479;stroke-linecap:round;stroke-linejoin:round"
       d="m 631.65704,703.7758 90.73826,0.84153 c 6.5409,0.0607 17.38414,0.5214 17.38414,0.5214 6.86096,-0.87146 6.58519,9.76668 0.044,9.76668 H 615.06171 c -2.35925,0 -4.62707,-10.3019 0.0627,-10.93774 0,0 10.31826,-0.24951 16.53259,-0.19187 z"
       sodipodi:nodetypes="sssssss" /><path
       id="rect1-7"
       style="fill:none;stroke:#ff5555;stroke-width:3.64724;stroke-linecap:round;stroke-linejoin:round"
       d="m 1217.3293,511.98517 h 28.0221 c 25.4529,0 45.9192,20.491 45.9439,45.9439 l 0.123,126.9124 c 0.022,22.2541 3.6801,19.3254 -21.7727,19.4109 l -76.2405,0.2558 c -25.4527,0.085 -21.8756,2.1135 -21.8967,-19.6667 l -0.123,-126.9124 c -0.025,-25.4529 20.491,-45.9439 45.9439,-45.9439 z"
       sodipodi:nodetypes="sssssssss" /><path
       style="fill:none;stroke:#808080;stroke-width:6;stroke-linecap:round;stroke-linejoin:round;stroke-dasharray:none;stroke-opacity:1;marker-end:url(#RoundedArrow)"
       d="M 825.25497,714.34999 V 896.92436"
       id="path1-3"
       sodipodi:nodetypes="cc" /><path
       style="fill:none;stroke:#808080;stroke-width:6.78834;stroke-linecap:butt;stroke-linejoin:miter;stroke-dasharray:none;stroke-opacity:1"
       d="m 849.90393,709.77863 0.197,186.1984"
       id="path1-6-6"
       sodipodi:nodetypes="cc" /><path
       style="fill:none;stroke:#808080;stroke-width:6.2515;stroke-linecap:butt;stroke-linejoin:miter;stroke-dasharray:none;stroke-opacity:1"
       d="M 877.81863,713.24908 V 966.92436"
       id="path1-2-1"
       sodipodi:nodetypes="cc" /><path
       style="fill:none;stroke:#808080;stroke-width:6;stroke-linecap:butt;stroke-linejoin:miter;stroke-dasharray:none;stroke-opacity:1"
       d="M 903.89745,712.62609 V 896.53664"
       id="path1-7-2"
       sodipodi:nodetypes="cc" /><path
       id="rect7-6-9"
       style="fill:#ff5555;stroke:#ff5555;stroke-width:6.5243;stroke-linecap:round;stroke-linejoin:round"
       d="m 1176.252,546.68647 c 0,0 4.8148,-14.349 16.9844,-22.387 12.1695,-8.038 25.8572,-8.6555 35.9623,-8.6555 10.1051,0 31.0134,-1.0555 44.6295,9.9836 10.5315,8.5383 13.7088,22.7789 13.7088,22.7789 l 1.0707,81.7366 h -112.62 z"
       sodipodi:nodetypes="cssscccc" /><path
       id="rect7-3"
       style="fill:#ff8080;stroke:#ff8080;stroke-width:5.09104;stroke-linecap:round;stroke-linejoin:round"
       d="m 1175.3299,635.51357 c 0,0 38.5984,-6.987 58.6842,-6.987 20.0858,0 53.2427,6.987 53.2427,6.987 v 63.8429 h -111.9269 z"
       sodipodi:nodetypes="czcccc" /><path
       id="rect8-1"
       style="fill:#ff8080;stroke:#ff8080;stroke-width:5.3;stroke-linecap:round;stroke-linejoin:round"
       d="m 1215.2246,516.36147 c 23.2719,0.069 40.5744,0.3254 52.3962,6.5732 11.0219,9.1859 17.3689,15.6567 19.8264,24.2522 -11.5476,5.8714 -23.3255,5.0327 -35.893,-1.1523 -12.5675,-6.1849 -28.6808,-7.8956 -36.3296,-29.6731 z"
       sodipodi:nodetypes="ccccc" /><path
       id="rect2-5"
       style="fill:#ff8080;stroke:#ff5555;stroke-width:4.06179;stroke-linecap:round;stroke-linejoin:round"
       d="m 1185.0389,703.32897 90.0548,0.8425 c 6.4917,0.061 17.2532,0.522 17.2532,0.522 6.8093,-0.8725 6.5356,9.7781 0.044,9.7781 h -123.8221 c -2.3415,0 -4.5922,-10.3139 0.062,-10.9505 0,0 10.2405,-0.2498 16.4081,-0.1921 z"
       sodipodi:nodetypes="sssssss" /><path
       id="rect1-7-1"
       style="fill:none;stroke:#2774ed;stroke-width:3.64724;stroke-linecap:round;stroke-linejoin:round;stroke-opacity:1"
       d="m 849.36243,512.78526 h 28.0222 c 25.4529,0 45.9192,20.49098 45.9438,45.94387 l 0.1231,126.91243 c 0.022,22.25406 3.68,19.32542 -21.7727,19.41084 l -76.2405,0.25586 c -25.45278,0.0854 -21.87561,2.11345 -21.89672,-19.6667 L 803.4186,558.72913 c -0.0247,-25.45289 20.49093,-45.94387 45.94383,-45.94387 z"
       sodipodi:nodetypes="sssssssss" /><path
       style="fill:none;stroke:#808080;stroke-width:6;stroke-linecap:butt;stroke-linejoin:miter;stroke-dasharray:none;stroke-opacity:1"
       d="m 1011.1238,717.16372 1.2143,180.14357"
       id="path1-3-0"
       sodipodi:nodetypes="cc" /><path
       style="fill:none;stroke:#808080;stroke-width:6.78834;stroke-linecap:butt;stroke-linejoin:miter;stroke-dasharray:none;stroke-opacity:1;marker-end:url(#marker20)"
       d="m 1035.7727,712.59236 v 184.332"
       id="path1-6-6-6"
       sodipodi:nodetypes="cc" /><path
       style="fill:none;stroke:#808080;stroke-width:6.2515;stroke-linecap:butt;stroke-linejoin:miter;stroke-dasharray:none;stroke-opacity:1"
       d="m 1063.6874,716.30363 -0.1428,252.64467"
       id="path1-2-1-3"
       sodipodi:nodetypes="cc" /><path
       style="fill:none;stroke:#808080;stroke-width:6;stroke-linecap:butt;stroke-linejoin:miter;stroke-dasharray:none;stroke-opacity:1"
       d="M 1089.7662,715.43982 1088.751,897.1383"
       id="path1-7-2-2"
       sodipodi:nodetypes="cc" /><path
       style="fill:none;stroke:#808080;stroke-width:6;stroke-linecap:butt;stroke-linejoin:miter;stroke-dasharray:none;stroke-opacity:1"
       d="m 1190.4585,717.16372 1.2144,180.14357"
       id="path1-3-0-5"
       sodipodi:nodetypes="cc" /><path
       style="fill:none;stroke:#808080;stroke-width:6;stroke-linecap:butt;stroke-linejoin:miter;stroke-dasharray:none;stroke-opacity:1"
       d="m 1214.5048,716.78079 1.2144,180.14357"
       id="path1-3-0-5-9"
       sodipodi:nodetypes="cc" /><path
       style="fill:none;stroke:#808080;stroke-width:6.2515;stroke-linecap:butt;stroke-linejoin:miter;stroke-dasharray:none;stroke-opacity:1"
       d="m 1243.0222,716.30363 -0.1428,252.64467"
       id="path1-2-1-3-9"
       sodipodi:nodetypes="cc" /><path
       style="fill:none;stroke:#808080;stroke-width:6;stroke-linecap:butt;stroke-linejoin:miter;stroke-dasharray:none;stroke-opacity:1;marker-end:url(#RoundedArrow)"
       d="m 1269.1011,715.43982 -1.0152,181.69848"
       id="path1-7-2-2-7"
       sodipodi:nodetypes="cc" /><path
       id="rect7-6-9-0"
       style="fill:#2774ed;fill-opacity:1;stroke:#2774ed;stroke-width:6.5038;stroke-linecap:round;stroke-linejoin:round;stroke-opacity:1"
       d="m 807.78892,547.78249 c 0,0 4.78373,-14.35156 16.87491,-22.39101 12.091,-8.03945 25.6903,-8.65712 35.7303,-8.65712 10.0398,0 30.8133,-1.05569 44.3415,9.9854 10.4636,8.53986 13.6204,22.78299 13.6204,22.78299 l 1.0638,81.75124 H 807.52635 Z"
       sodipodi:nodetypes="cssscccc" /><path
       id="rect7-3-6"
       style="fill:#5894f1;fill-opacity:1;stroke:#5894f1;stroke-width:5.19726;stroke-linecap:round;stroke-linejoin:round;stroke-opacity:1"
       d="m 807.41617,636.66825 c 0,0 38.56186,-7.28849 58.62856,-7.28849 20.0668,0 53.1922,7.28849 53.1922,7.28849 v 66.59811 H 807.41617 Z"
       sodipodi:nodetypes="czcccc" /><path
       id="rect8-1-1"
       style="fill:#5894f1;fill-opacity:1;stroke:#5894f1;stroke-width:5.3;stroke-linecap:round;stroke-linejoin:round;stroke-opacity:1"
       d="m 847.25773,517.1615 c 23.2719,0.0686 40.5745,0.32543 52.3963,6.57328 11.0219,9.18587 17.3688,15.65663 19.8264,24.2522 -11.5477,5.8714 -23.3255,5.03264 -35.893,-1.15231 -12.5676,-6.18495 -28.6808,-7.89558 -36.3297,-29.67317 z"
       sodipodi:nodetypes="ccccc" /><path
       id="rect2-5-6"
       style="fill:#5894f1;fill-opacity:1;stroke:#2774ed;stroke-width:4.12533;stroke-linecap:round;stroke-linejoin:round;stroke-opacity:1"
       d="m 817.83003,704.16079 93.4273,0.83771 c 6.7347,0.0605 17.8994,0.51904 17.8994,0.51904 7.0642,-0.86751 6.7803,9.72232 0.046,9.72232 H 800.74282 c -2.42917,0 -4.76419,-10.2551 0.0646,-10.88807 0,0 10.624,-0.24837 17.02251,-0.191 z"
       sodipodi:nodetypes="sssssss" /><path
       id="rect1-7-1-3"
       style="fill:none;stroke:#55d400;stroke-width:3.64724;stroke-linecap:round;stroke-linejoin:round"
       d="m 1034.6944,514.34046 h 28.0221 c 25.453,0 45.9193,20.49098 45.944,45.94387 l 0.123,126.91243 c 0.022,22.25406 3.6801,19.32542 -21.7727,19.41084 l -76.2406,0.25586 c -25.45268,0.0854 -21.87558,2.11345 -21.89668,-19.6667 l -0.123,-126.91243 c -0.025,-25.45289 20.49098,-45.94387 45.94388,-45.94387 z"
       sodipodi:nodetypes="sssssssss" /><path
       id="rect7-6-9-0-5"
       style="fill:#55d400;fill-opacity:1;stroke:#55d400;stroke-width:6.53099;stroke-linecap:round;stroke-linejoin:round;stroke-opacity:1"
       d="m 992.14542,549.34391 c 0,0 4.825,-14.34815 17.02028,-22.38568 12.1952,-8.03754 25.9117,-8.65506 36.0382,-8.65506 10.1264,0 31.0789,-1.05544 44.7237,9.98302 10.5537,8.53783 13.7377,22.77757 13.7377,22.77757 l 1.073,81.73182 H 991.88062 Z"
       sodipodi:nodetypes="cssscccc" /><path
       id="rect7-3-6-4"
       style="fill:#b3ff80;fill-opacity:1;stroke:#b3ff80;stroke-width:5.09104;stroke-linecap:round;stroke-linejoin:round;stroke-opacity:1"
       d="m 992.69502,637.86881 c 0,0 38.59838,-6.98696 58.68418,-6.98696 20.0859,0 53.2428,6.98696 53.2428,6.98696 v 63.84296 H 992.69502 Z"
       sodipodi:nodetypes="czcccc" /><path
       id="rect8-1-1-7"
       style="fill:#b3ff80;fill-opacity:1;stroke:#b3ff80;stroke-width:5.3;stroke-linecap:round;stroke-linejoin:round;stroke-opacity:1"
       d="m 1032.5897,518.7167 c 23.2719,0.0686 40.5746,0.32543 52.3964,6.57328 11.0218,9.18587 17.3688,15.65663 19.8263,24.2522 -11.5476,5.8714 -23.3255,5.03264 -35.893,-1.15231 -12.5676,-6.18495 -28.6809,-7.89558 -36.3297,-29.67317 z"
       sodipodi:nodetypes="ccccc" /><path
       id="rect2-5-6-7"
       style="fill:#b3ff80;stroke:#55d400;stroke-width:4.04956;stroke-linecap:round;stroke-linejoin:round"
       d="m 1002.7853,705.67814 89.4156,0.84344 c 6.4455,0.0608 17.1306,0.52258 17.1306,0.52258 6.761,-0.87344 6.4892,9.78883 0.043,9.78883 H 986.43182 c -2.3248,0 -4.5596,-10.32527 0.061,-10.96255 0,0 10.1679,-0.25007 16.29158,-0.1923 z"
       sodipodi:nodetypes="ssssssss" /><text
       xml:space="preserve"
       style="font-style:normal;font-weight:normal;font-size:26.6667px;line-height:1.25;font-family:sans-serif;letter-spacing:0px;word-spacing:0px;white-space:pre;inline-size:0;fill:#000000;fill-opacity:1;stroke:none"
       x="280"
       y="980"
       id="text17"
       transform="translate(350.17436,-58.168056)"><tspan
         id="tspan17"
         x="280"
         y="980"
         style="font-style:normal;font-variant:normal;font-weight:normal;font-stretch:normal;font-size:26.6667px;font-family:Likhan;-inkscape-font-specification:Likhan;fill:#666666">1</tspan></text><text
       xml:space="preserve"
       style="font-style:normal;font-weight:normal;font-size:26.6667px;line-height:1.25;font-family:sans-serif;letter-spacing:0px;word-spacing:0px;white-space:pre;inline-size:0;fill:#666666;fill-opacity:1;stroke:none"
       x="280"
       y="980"
       id="text17-3"
       transform="translate(378.82078,-58.168056)"><tspan
         id="tspan17-3"
         x="280"
         y="980"
         style="font-style:normal;font-variant:normal;font-weight:normal;font-stretch:normal;font-size:26.6667px;font-family:Likhan;-inkscape-font-specification:Likhan;fill:#666666">2</tspan></text><text
       xml:space="preserve"
       style="font-style:normal;font-weight:normal;font-size:26.6667px;line-height:0.95;font-family:sans-serif;letter-spacing:0px;word-spacing:0px;white-space:pre;inline-size:0;fill:#000000;fill-opacity:1;stroke:none"
       x="360.43906"
       y="980"
       id="text17-4-5-6"
       transform="translate(908.96604,-32.778014)"><tspan
         sodipodi:role="line"
         x="360.43906"
         y="980"
         id="tspan20-1-4"
         style="font-style:normal;font-variant:normal;font-weight:normal;font-stretch:normal;font-size:26.6667px;line-height:0.95;font-family:Cantarell;-inkscape-font-specification:Cantarell;text-align:center;text-anchor:middle;fill:#666666">red</tspan></text><text
       xml:space="preserve"
       style="font-style:normal;font-weight:normal;font-size:26.6667px;line-height:0.95;font-family:sans-serif;letter-spacing:0px;word-spacing:0px;white-space:pre;inline-size:0;fill:#000000;fill-opacity:1;stroke:none"
       x="360.43906"
       y="980"
       id="text17-4-5-6-2"
       transform="translate(467.97788,-34.32895)"><tspan
         sodipodi:role="line"
         x="360.43906"
         y="980"
         id="tspan20-1-4-8"
         style="font-style:normal;font-variant:normal;font-weight:normal;font-stretch:normal;font-size:26.6667px;line-height:0.95;font-family:Cantarell;-inkscape-font-specification:Cantarell;text-align:center;text-anchor:middle;fill:#666666">blue</tspan></text><text
       xml:space="preserve"
       style="font-style:normal;font-weight:normal;font-size:26.6667px;line-height:0.95;font-family:sans-serif;letter-spacing:0px;word-spacing:0px;white-space:pre;inline-size:0;fill:#000000;fill-opacity:1;stroke:none"
       x="360.43906"
       y="980"
       id="text17-4-5-6-2-4"
       transform="translate(661.62406,-32.915625)"><tspan
         sodipodi:role="line"
         x="360.43906"
         y="980"
         id="tspan20-1-4-8-0"
         style="font-style:normal;font-variant:normal;font-weight:normal;font-stretch:normal;font-size:26.6667px;line-height:0.95;font-family:Cantarell;-inkscape-font-specification:Cantarell;text-align:center;text-anchor:middle;fill:#666666">green</tspan></text><text
       xml:space="preserve"
       style="font-style:normal;font-weight:normal;font-size:26.6667px;line-height:1.25;font-family:sans-serif;letter-spacing:0px;word-spacing:0px;white-space:pre;inline-size:0;fill:#000000;fill-opacity:1;stroke:none"
       x="280"
       y="980"
       id="text17-3-8"
       transform="translate(431.3168,-58.115973)"><tspan
         id="tspan17-3-8"
         x="280"
         y="980"
         style="font-style:normal;font-variant:normal;font-weight:normal;font-stretch:normal;font-size:26.6667px;font-family:Likhan;-inkscape-font-specification:Likhan;fill:#666666">3</tspan></text><text
       xml:space="preserve"
       style="font-style:normal;font-weight:normal;font-size:32px;line-height:0.95;font-family:sans-serif;letter-spacing:0px;word-spacing:0px;white-space:pre;inline-size:0;fill:#000000;fill-opacity:1;stroke:none"
       x="360.43906"
       y="980"
       id="text17-4"
       transform="translate(415.54851,9.957487)"><tspan
         sodipodi:role="line"
         id="tspan19"
         x="280"
         y="980"
         style="font-style:normal;font-variant:normal;font-weight:normal;font-stretch:normal;font-size:32px;line-height:0.95;font-family:Cantarell;-inkscape-font-specification:Cantarell;text-align:center;text-anchor:middle;fill:#666666"><tspan
           id="tspan17-8"
           x="280"
           y="980"
           style="font-style:normal;font-variant:normal;font-weight:normal;font-stretch:normal;font-size:32px;line-height:0.95;font-family:Cantarell;-inkscape-font-specification:Cantarell;text-align:center;text-anchor:middle;fill:#666666">common</tspan></tspan><tspan
         sodipodi:role="line"
         x="280"
         y="1010.7796"
         id="tspan20"
         style="font-style:normal;font-variant:normal;font-weight:normal;font-stretch:normal;font-size:32px;line-height:0.95;font-family:Cantarell;-inkscape-font-specification:Cantarell;text-align:center;text-anchor:middle;fill:#666666">cathode</tspan></text><text
       xml:space="preserve"
       style="font-style:normal;font-weight:normal;font-size:32px;line-height:0.95;font-family:sans-serif;letter-spacing:0px;word-spacing:0px;white-space:pre;inline-size:0;fill:#000000;fill-opacity:1;stroke:none"
       x="360.43906"
       y="980"
       id="text17-4-5"
       transform="translate(516.63095,16.709487)"><tspan
         sodipodi:role="line"
         x="360.43906"
         y="980"
         id="tspan20-1"
         style="font-style:normal;font-variant:normal;font-weight:normal;font-stretch:normal;font-size:32px;line-height:0.95;font-family:Cantarell;-inkscape-font-specification:Cantarell;text-align:center;text-anchor:middle;fill:#666666">GND</tspan></text><text
       xml:space="preserve"
       style="font-style:normal;font-weight:normal;font-size:32px;line-height:0.95;font-family:sans-serif;letter-spacing:0px;word-spacing:0px;white-space:pre;inline-size:0;fill:#000000;fill-opacity:1;stroke:none"
       x="360.43906"
       y="980"
       id="text17-4-5-3"
       transform="translate(697.23913,16.709487)"><tspan
         sodipodi:role="line"
         x="360.43906"
         y="980"
         id="tspan20-1-6"
         style="font-style:normal;font-variant:normal;font-weight:normal;font-stretch:normal;font-size:32px;line-height:0.95;font-family:Cantarell;-inkscape-font-specification:Cantarell;text-align:center;text-anchor:middle;fill:#666666">GND</tspan></text><text
       xml:space="preserve"
       style="font-style:normal;font-weight:normal;font-size:32px;line-height:0.95;font-family:sans-serif;letter-spacing:0px;word-spacing:0px;white-space:pre;inline-size:0;fill:#000000;fill-opacity:1;stroke:none"
       x="360.43906"
       y="980"
       id="text17-4-5-1"
       transform="translate(883.58315,16.709487)"><tspan
         sodipodi:role="line"
         x="360.43906"
         y="980"
         id="tspan20-1-0"
         style="font-style:normal;font-variant:normal;font-weight:normal;font-stretch:normal;font-size:32px;line-height:0.95;font-family:Cantarell;-inkscape-font-specification:Cantarell;text-align:center;text-anchor:middle;fill:#666666">GND</tspan></text></g></svg>
