<?xml version="1.0" encoding="UTF-8" standalone="no"?>
<!-- Created with Inkscape (http://www.inkscape.org/) -->

<svg
   width="914.62933"
   height="617.2876"
   viewBox="0 0 914.62933 617.2876"
   version="1.1"
   id="svg1"
   inkscape:version="1.3 (0e150ed6c4, 2023-07-21)"
   sodipodi:docname="Github_LED_Grafiken.svg"
   xml:space="preserve"
   xmlns:inkscape="http://www.inkscape.org/namespaces/inkscape"
   xmlns:sodipodi="http://sodipodi.sourceforge.net/DTD/sodipodi-0.dtd"
   xmlns="http://www.w3.org/2000/svg"
   xmlns:svg="http://www.w3.org/2000/svg"><sodipodi:namedview
     id="namedview1"
     pagecolor="#ffffff"
     bordercolor="#666666"
     borderopacity="1.0"
     inkscape:showpageshadow="2"
     inkscape:pageopacity="0.0"
     inkscape:pagecheckerboard="0"
     inkscape:deskcolor="#d1d1d1"
     inkscape:document-units="px"
     showguides="true"
     inkscape:zoom="0.515"
     inkscape:cx="951.45631"
     inkscape:cy="766.01942"
     inkscape:window-width="1920"
     inkscape:window-height="1172"
     inkscape:window-x="0"
     inkscape:window-y="0"
     inkscape:window-maximized="1"
     inkscape:current-layer="layer1"
     showgrid="false"><inkscape:grid
       id="grid2"
       units="px"
       originx="-517.99347"
       originy="-1176.103"
       spacingx="1"
       spacingy="1"
       empcolor="#3f3fff"
       empopacity="0.25098039"
       color="#3f3fff"
       opacity="0.1254902"
       empspacing="5"
       dotted="false"
       gridanglex="30"
       gridanglez="30"
       visible="false" /></sodipodi:namedview><defs
     id="defs1"><marker
       style="overflow:visible"
       id="marker20"
       refX="0.076800093"
       refY="0.28517053"
       orient="auto-start-reverse"
       inkscape:stockid="Rounded arrow"
       markerWidth="0.73710066"
       markerHeight="0.71705389"
       viewBox="0 0 1 1"
       inkscape:isstock="true"
       inkscape:collect="always"
       preserveAspectRatio="none"><path
         transform="scale(0.7)"
         d="m -0.21114562,-4.1055728 6.42229122,3.21114561 a 1,1 90 0 1 0,1.78885438 L -0.21114562,4.1055728 A 1.236068,1.236068 31.717474 0 1 -2,3 v -6 a 1.236068,1.236068 148.28253 0 1 1.78885438,-1.1055728 z"
         style="fill:context-stroke;fill-rule:evenodd;stroke:none"
         id="path20" /></marker><marker
       style="overflow:visible"
       id="RoundedArrow-9"
       refX="-0.033403177"
       refY="0.13553807"
       orient="auto"
       inkscape:stockid="Rounded arrow"
       markerWidth="0.83083618"
       markerHeight="0.75830859"
       viewBox="0 0 1 1"
       inkscape:isstock="true"
       inkscape:collect="always"
       preserveAspectRatio="none"><path
         transform="scale(0.7)"
         d="m -0.21114562,-4.1055728 6.42229122,3.21114561 a 1,1 90 0 1 0,1.78885438 L -0.21114562,4.1055728 A 1.236068,1.236068 31.717474 0 1 -2,3 v -6 a 1.236068,1.236068 148.28253 0 1 1.78885438,-1.1055728 z"
         style="fill:context-stroke;fill-rule:evenodd;stroke:none"
         id="path8-9" /></marker><marker
       style="overflow:visible"
       id="RoundedArrow-9-1"
       refX="-0.033403177"
       refY="0.13553807"
       orient="auto"
       inkscape:stockid="Rounded arrow"
       markerWidth="0.83083618"
       markerHeight="0.75830859"
       viewBox="0 0 1 1"
       inkscape:isstock="true"
       inkscape:collect="always"
       preserveAspectRatio="none"><path
         transform="scale(0.7)"
         d="m -0.21114562,-4.1055728 6.42229122,3.21114561 a 1,1 90 0 1 0,1.78885438 L -0.21114562,4.1055728 A 1.236068,1.236068 31.717474 0 1 -2,3 v -6 a 1.236068,1.236068 148.28253 0 1 1.78885438,-1.1055728 z"
         style="fill:context-stroke;fill-rule:evenodd;stroke:none"
         id="path8-9-3" /></marker><marker
       style="overflow:visible"
       id="RoundedArrow-9-10"
       refX="-0.033403177"
       refY="0.13553807"
       orient="auto"
       inkscape:stockid="Rounded arrow"
       markerWidth="0.83083618"
       markerHeight="0.75830859"
       viewBox="0 0 1 1"
       inkscape:isstock="true"
       inkscape:collect="always"
       preserveAspectRatio="none"><path
         transform="scale(0.7)"
         d="m -0.21114562,-4.1055728 6.42229122,3.21114561 a 1,1 90 0 1 0,1.78885438 L -0.21114562,4.1055728 A 1.236068,1.236068 31.717474 0 1 -2,3 v -6 a 1.236068,1.236068 148.28253 0 1 1.78885438,-1.1055728 z"
         style="fill:context-stroke;fill-rule:evenodd;stroke:none"
         id="path8-9-7" /></marker><marker
       style="overflow:visible"
       id="RoundedArrow-9-1-5"
       refX="-0.033403177"
       refY="0.13553807"
       orient="auto"
       inkscape:stockid="Rounded arrow"
       markerWidth="0.83083618"
       markerHeight="0.75830859"
       viewBox="0 0 1 1"
       inkscape:isstock="true"
       inkscape:collect="always"
       preserveAspectRatio="none"><path
         transform="scale(0.7)"
         d="m -0.21114562,-4.1055728 6.42229122,3.21114561 a 1,1 90 0 1 0,1.78885438 L -0.21114562,4.1055728 A 1.236068,1.236068 31.717474 0 1 -2,3 v -6 a 1.236068,1.236068 148.28253 0 1 1.78885438,-1.1055728 z"
         style="fill:context-stroke;fill-rule:evenodd;stroke:none"
         id="path8-9-3-8" /></marker><marker
       style="overflow:visible"
       id="RoundedArrow-9-10-5"
       refX="-0.033403177"
       refY="0.13553807"
       orient="auto"
       inkscape:stockid="Rounded arrow"
       markerWidth="0.83083618"
       markerHeight="0.75830859"
       viewBox="0 0 1 1"
       inkscape:isstock="true"
       inkscape:collect="always"
       preserveAspectRatio="none"><path
         transform="scale(0.7)"
         d="m -0.21114562,-4.1055728 6.42229122,3.21114561 a 1,1 90 0 1 0,1.78885438 L -0.21114562,4.1055728 A 1.236068,1.236068 31.717474 0 1 -2,3 v -6 a 1.236068,1.236068 148.28253 0 1 1.78885438,-1.1055728 z"
         style="fill:context-stroke;fill-rule:evenodd;stroke:none"
         id="path8-9-7-4" /></marker><marker
       style="overflow:visible"
       id="RoundedArrow-9-1-5-4"
       refX="-0.033403177"
       refY="0.13553807"
       orient="auto"
       inkscape:stockid="Rounded arrow"
       markerWidth="0.83083618"
       markerHeight="0.75830859"
       viewBox="0 0 1 1"
       inkscape:isstock="true"
       inkscape:collect="always"
       preserveAspectRatio="none"><path
         transform="scale(0.7)"
         d="m -0.21114562,-4.1055728 6.42229122,3.21114561 a 1,1 90 0 1 0,1.78885438 L -0.21114562,4.1055728 A 1.236068,1.236068 31.717474 0 1 -2,3 v -6 a 1.236068,1.236068 148.28253 0 1 1.78885438,-1.1055728 z"
         style="fill:context-stroke;fill-rule:evenodd;stroke:none"
         id="path8-9-3-8-9" /></marker><marker
       style="overflow:visible"
       id="RoundedArrow-9-10-2"
       refX="-0.033403177"
       refY="0.13553807"
       orient="auto"
       inkscape:stockid="Rounded arrow"
       markerWidth="0.83083618"
       markerHeight="0.75830859"
       viewBox="0 0 1 1"
       inkscape:isstock="true"
       inkscape:collect="always"
       preserveAspectRatio="none"><path
         transform="scale(0.7)"
         d="m -0.21114562,-4.1055728 6.42229122,3.21114561 a 1,1 90 0 1 0,1.78885438 L -0.21114562,4.1055728 A 1.236068,1.236068 31.717474 0 1 -2,3 v -6 a 1.236068,1.236068 148.28253 0 1 1.78885438,-1.1055728 z"
         style="fill:context-stroke;fill-rule:evenodd;stroke:none"
         id="path8-9-7-2" /></marker><marker
       style="overflow:visible"
       id="RoundedArrow-9-1-5-6"
       refX="-0.033403177"
       refY="0.13553807"
       orient="auto"
       inkscape:stockid="Rounded arrow"
       markerWidth="0.83083618"
       markerHeight="0.75830859"
       viewBox="0 0 1 1"
       inkscape:isstock="true"
       inkscape:collect="always"
       preserveAspectRatio="none"><path
         transform="scale(0.7)"
         d="m -0.21114562,-4.1055728 6.42229122,3.21114561 a 1,1 90 0 1 0,1.78885438 L -0.21114562,4.1055728 A 1.236068,1.236068 31.717474 0 1 -2,3 v -6 a 1.236068,1.236068 148.28253 0 1 1.78885438,-1.1055728 z"
         style="fill:context-stroke;fill-rule:evenodd;stroke:none"
         id="path8-9-3-8-4" /></marker><marker
       style="overflow:visible"
       id="RoundedArrow-9-10-5-1"
       refX="-0.033403177"
       refY="0.13553807"
       orient="auto"
       inkscape:stockid="Rounded arrow"
       markerWidth="0.83083618"
       markerHeight="0.75830859"
       viewBox="0 0 1 1"
       inkscape:isstock="true"
       inkscape:collect="always"
       preserveAspectRatio="none"><path
         transform="scale(0.7)"
         d="m -0.21114562,-4.1055728 6.42229122,3.21114561 a 1,1 90 0 1 0,1.78885438 L -0.21114562,4.1055728 A 1.236068,1.236068 31.717474 0 1 -2,3 v -6 a 1.236068,1.236068 148.28253 0 1 1.78885438,-1.1055728 z"
         style="fill:context-stroke;fill-rule:evenodd;stroke:none"
         id="path8-9-7-4-2" /></marker><marker
       style="overflow:visible"
       id="RoundedArrow-9-1-5-4-8"
       refX="-0.033403177"
       refY="0.13553807"
       orient="auto"
       inkscape:stockid="Rounded arrow"
       markerWidth="0.83083618"
       markerHeight="0.75830859"
       viewBox="0 0 1 1"
       inkscape:isstock="true"
       inkscape:collect="always"
       preserveAspectRatio="none"><path
         transform="scale(0.7)"
         d="m -0.21114562,-4.1055728 6.42229122,3.21114561 a 1,1 90 0 1 0,1.78885438 L -0.21114562,4.1055728 A 1.236068,1.236068 31.717474 0 1 -2,3 v -6 a 1.236068,1.236068 148.28253 0 1 1.78885438,-1.1055728 z"
         style="fill:context-stroke;fill-rule:evenodd;stroke:none"
         id="path8-9-3-8-9-8" /></marker><marker
       style="overflow:visible"
       id="RoundedArrow-9-7"
       refX="-0.033403177"
       refY="0.13553807"
       orient="auto"
       inkscape:stockid="Rounded arrow"
       markerWidth="0.83083618"
       markerHeight="0.75830859"
       viewBox="0 0 1 1"
       inkscape:isstock="true"
       inkscape:collect="always"
       preserveAspectRatio="none"><path
         transform="scale(0.7)"
         d="m -0.21114562,-4.1055728 6.42229122,3.21114561 a 1,1 90 0 1 0,1.78885438 L -0.21114562,4.1055728 A 1.236068,1.236068 31.717474 0 1 -2,3 v -6 a 1.236068,1.236068 148.28253 0 1 1.78885438,-1.1055728 z"
         style="fill:context-stroke;fill-rule:evenodd;stroke:none"
         id="path8-9-4" /></marker><marker
       style="overflow:visible"
       id="RoundedArrow-9-1-8"
       refX="-0.033403177"
       refY="0.13553807"
       orient="auto"
       inkscape:stockid="Rounded arrow"
       markerWidth="0.83083618"
       markerHeight="0.75830859"
       viewBox="0 0 1 1"
       inkscape:isstock="true"
       inkscape:collect="always"
       preserveAspectRatio="none"><path
         transform="scale(0.7)"
         d="m -0.21114562,-4.1055728 6.42229122,3.21114561 a 1,1 90 0 1 0,1.78885438 L -0.21114562,4.1055728 A 1.236068,1.236068 31.717474 0 1 -2,3 v -6 a 1.236068,1.236068 148.28253 0 1 1.78885438,-1.1055728 z"
         style="fill:context-stroke;fill-rule:evenodd;stroke:none"
         id="path8-9-3-5" /></marker></defs><g
     inkscape:label="Ebene 1"
     inkscape:groupmode="layer"
     id="layer1"
     transform="translate(-517.99347,-1176.103)"><path
       style="fill:none;stroke:#2774ed;stroke-width:2.7645;stroke-linecap:round;stroke-linejoin:round;stroke-dasharray:none;stroke-opacity:1;marker-end:url(#RoundedArrow-9)"
       d="m 873.14388,1226.6732 -27.74282,-34.1147"
       id="path1-3-02"
       sodipodi:nodetypes="cc" /><path
       style="fill:none;stroke:#2774ed;stroke-width:2.7645;stroke-linecap:round;stroke-linejoin:round;stroke-dasharray:none;stroke-opacity:1;marker-end:url(#RoundedArrow-9-1)"
       d="m 849.60264,1226.7825 -27.74282,-34.1146"
       id="path1-3-02-1"
       sodipodi:nodetypes="cc" /><text
       xml:space="preserve"
       style="font-style:normal;font-weight:normal;font-size:36.1358px;line-height:0.95;font-family:sans-serif;letter-spacing:0px;word-spacing:0px;white-space:pre;inline-size:0;fill:#000000;fill-opacity:1;stroke:none"
       x="360.43906"
       y="980"
       id="text17-4-5-5"
       transform="matrix(0.86296871,0,0,0.90871786,260.85083,661.423)"><tspan
         sodipodi:role="line"
         x="360.43906"
         y="980"
         id="tspan20-1-2"
         style="font-style:normal;font-variant:normal;font-weight:normal;font-stretch:normal;font-size:36.1358px;line-height:0.95;font-family:Cantarell;-inkscape-font-specification:Cantarell;text-align:center;text-anchor:middle">GND</tspan></text><text
       xml:space="preserve"
       style="font-style:normal;font-weight:normal;font-size:36.1358px;line-height:0.95;font-family:sans-serif;letter-spacing:0px;word-spacing:0px;white-space:pre;inline-size:0;fill:#000000;fill-opacity:1;stroke:none"
       x="360.43906"
       y="980"
       id="text17-4-5-5-7"
       transform="matrix(0.86296871,0,0,0.90871786,405.80653,899.9737)"><tspan
         sodipodi:role="line"
         x="360.43906"
         y="980"
         id="tspan20-1-2-89"
         style="font-style:normal;font-variant:normal;font-weight:normal;font-stretch:normal;font-size:36.1358px;line-height:0.95;font-family:Cantarell;-inkscape-font-specification:Cantarell;text-align:center;text-anchor:middle">RGB - LED Common Cathode</tspan></text><text
       xml:space="preserve"
       style="font-style:normal;font-weight:normal;font-size:36.1358px;line-height:0.95;font-family:sans-serif;letter-spacing:0px;word-spacing:0px;white-space:pre;inline-size:0;fill:#000000;fill-opacity:1;stroke:none"
       x="360.43906"
       y="980"
       id="text17-4-5-5-7-2"
       transform="matrix(0.86296871,0,0,0.90871786,915.03002,902.51875)"><tspan
         sodipodi:role="line"
         x="360.43906"
         y="980"
         id="tspan20-1-2-89-0"
         style="font-style:normal;font-variant:normal;font-weight:normal;font-stretch:normal;font-size:36.1358px;line-height:0.95;font-family:Cantarell;-inkscape-font-specification:Cantarell;text-align:center;text-anchor:middle">RGB - LED Common Anode</tspan></text><path
       id="rect21"
       style="fill:#808080;stroke-width:5.31329;stroke-linecap:round;stroke-linejoin:round"
       d="m 547.73161,1237.4861 h 78.13056 c 12.0064,0 32.02227,22.3069 31.60673,28.1193 -0.41553,5.8122 -19.60033,26.5119 -31.60673,26.5119 h -78.13056 c -6.65154,0 -12.00639,-2.0039 -12.00639,-9.008 v -36.6152 c 0,-7.0041 5.35485,-9.008 12.00639,-9.008 z"
       sodipodi:nodetypes="sszsssss" /><path
       id="rect21-2"
       style="fill:none;stroke:#2774ed;stroke-width:5.31329;stroke-linecap:round;stroke-linejoin:round;stroke-opacity:1"
       d="m 820.7261,1238.8995 c 26.07562,11.7209 31.81619,14.7918 54.50728,28.1193 -23.85043,14.2 -27.60667,15.0464 -54.50728,26.5119 0.57593,-16.6849 -0.47059,-31.8706 0,-54.6312 z"
       sodipodi:nodetypes="cccc" /><text
       xml:space="preserve"
       style="font-style:normal;font-weight:normal;font-size:36.1358px;line-height:0.95;font-family:sans-serif;letter-spacing:0px;word-spacing:0px;white-space:pre;inline-size:0;fill:#ffffff;fill-opacity:1;stroke:none"
       x="360.43906"
       y="980"
       id="text17-4-9"
       transform="matrix(0.86296871,0,0,0.90871786,275.29568,383.8194)"><tspan
         sodipodi:role="line"
         x="360.43906"
         y="980"
         id="tspan20-6"
         style="font-style:normal;font-variant:normal;font-weight:normal;font-stretch:normal;font-size:36.1358px;line-height:0.95;font-family:Cantarell;-inkscape-font-specification:Cantarell;text-align:center;text-anchor:middle;fill:#ffffff">Pin 1</tspan></text><path
       id="rect21-8"
       style="fill:#808080;stroke-width:5.31329;stroke-linecap:round;stroke-linejoin:round"
       d="m 548.08407,1375.9019 h 78.13055 c 12.0064,0 32.02227,22.3069 31.60673,28.1193 -0.41553,5.8122 -19.60033,26.5119 -31.60673,26.5119 h -78.13055 c -6.65155,0 -12.0064,-2.0039 -12.0064,-9.008 v -36.6152 c 0,-7.0041 5.35485,-9.008 12.0064,-9.008 z"
       sodipodi:nodetypes="sszsssss" /><text
       xml:space="preserve"
       style="font-style:normal;font-weight:normal;font-size:36.1358px;line-height:0.95;font-family:sans-serif;letter-spacing:0px;word-spacing:0px;white-space:pre;inline-size:0;fill:#ffffff;fill-opacity:1;stroke:none"
       x="360.43906"
       y="980"
       id="text17-4-9-0"
       transform="matrix(0.86296871,0,0,0.90871786,275.64814,522.23512)"><tspan
         sodipodi:role="line"
         x="360.43906"
         y="980"
         id="tspan20-6-5"
         style="font-style:normal;font-variant:normal;font-weight:normal;font-stretch:normal;font-size:36.1358px;line-height:0.95;font-family:Cantarell;-inkscape-font-specification:Cantarell;text-align:center;text-anchor:middle;fill:#ffffff">Pin 2</tspan></text><path
       style="fill:#808080;stroke:#808080;stroke-width:5.642;stroke-linecap:butt;stroke-linejoin:miter;stroke-dasharray:none;stroke-opacity:1"
       d="M 641.88202,1266.2691 H 779.32106"
       id="path21" /><path
       style="fill:#808080;stroke:#808080;stroke-width:5.64183;stroke-linecap:butt;stroke-linejoin:miter;stroke-dasharray:none;stroke-opacity:1"
       d="m 913.62436,1263.5706 v 421.8229"
       id="path21-6" /><path
       style="fill:#808080;stroke:#2774ed;stroke-width:5.642;stroke-linecap:butt;stroke-linejoin:miter;stroke-dasharray:none;stroke-opacity:1"
       d="m 778.49882,1265.9696 h 42.96399"
       id="path21-2" /><path
       style="fill:#808080;stroke:#2774ed;stroke-width:5.642;stroke-linecap:butt;stroke-linejoin:miter;stroke-dasharray:none;stroke-opacity:1"
       d="m 868.52,1268.1387 h 42.96399"
       id="path21-2-05" /><path
       style="fill:#808080;stroke:#2774ed;stroke-width:5.64183;stroke-linecap:butt;stroke-linejoin:miter;stroke-dasharray:none;stroke-opacity:1"
       d="m 875.47673,1299.1157 v -66.6719"
       id="path21-2-1" /><path
       style="fill:none;stroke:#2774ed;stroke-width:2.7645;stroke-linecap:round;stroke-linejoin:round;stroke-dasharray:none;stroke-opacity:1;marker-end:url(#RoundedArrow-9-7)"
       d="m 1385.8843,1218.8413 -27.7429,-34.1147"
       id="path1-3-02-2"
       sodipodi:nodetypes="cc" /><path
       style="fill:none;stroke:#2774ed;stroke-width:2.7645;stroke-linecap:round;stroke-linejoin:round;stroke-dasharray:none;stroke-opacity:1;marker-end:url(#RoundedArrow-9-1-8)"
       d="m 1362.343,1218.9506 -27.7428,-34.1146"
       id="path1-3-02-1-6"
       sodipodi:nodetypes="cc" /><path
       id="rect21-2-0"
       style="fill:none;stroke:#2774ed;stroke-width:5.31329;stroke-linecap:round;stroke-linejoin:round;stroke-opacity:1"
       d="m 1333.4665,1231.0676 c 26.0756,11.7209 31.8162,14.7918 54.5073,28.1193 -23.8505,14.2 -27.6067,15.0464 -54.5073,26.5119 0.5759,-16.6849 -0.4706,-31.8706 0,-54.6312 z"
       sodipodi:nodetypes="cccc" /><path
       style="fill:#808080;stroke:#2774ed;stroke-width:5.642;stroke-linecap:butt;stroke-linejoin:miter;stroke-dasharray:none;stroke-opacity:1"
       d="m 1291.2392,1258.1377 h 42.964"
       id="path21-2-6" /><path
       style="fill:#808080;stroke:#2774ed;stroke-width:5.642;stroke-linecap:butt;stroke-linejoin:miter;stroke-dasharray:none;stroke-opacity:1"
       d="m 1381.2604,1260.3068 h 42.964"
       id="path21-2-05-6" /><path
       style="fill:#808080;stroke:#2774ed;stroke-width:5.64183;stroke-linecap:butt;stroke-linejoin:miter;stroke-dasharray:none;stroke-opacity:1"
       d="m 1388.2171,1291.2838 v -66.6719"
       id="path21-2-1-46" /><path
       style="fill:none;stroke:#55d400;stroke-width:2.7645;stroke-linecap:round;stroke-linejoin:round;stroke-dasharray:none;stroke-opacity:1;marker-end:url(#RoundedArrow-9-10)"
       d="M 868.62156,1365.3906 840.87874,1331.276"
       id="path1-3-02-0"
       sodipodi:nodetypes="cc" /><path
       style="fill:none;stroke:#55d400;stroke-width:2.7645;stroke-linecap:round;stroke-linejoin:round;stroke-dasharray:none;stroke-opacity:1;marker-end:url(#RoundedArrow-9-1-5)"
       d="M 845.08032,1365.4999 817.3375,1331.3853"
       id="path1-3-02-1-4"
       sodipodi:nodetypes="cc" /><path
       style="fill:none;stroke:#55d400;stroke-width:5.31329;stroke-linecap:round;stroke-linejoin:round;stroke-opacity:1"
       d="m 816.20378,1377.6169 c 26.07562,11.7209 31.81619,14.7919 54.50729,28.1193 -23.85044,14.2 -27.60668,15.0465 -54.50729,26.5119 0.57593,-16.6848 -0.47059,-31.8706 0,-54.6312 z"
       id="rect21-2-8" /><path
       style="fill:#808080;stroke:#55d400;stroke-width:5.642;stroke-linecap:butt;stroke-linejoin:miter;stroke-dasharray:none;stroke-opacity:1"
       d="m 773.9765,1404.687 h 42.02156"
       id="path21-2-0" /><path
       style="fill:#808080;stroke:#55d400;stroke-width:5.6425;stroke-linecap:butt;stroke-linejoin:miter;stroke-dasharray:none;stroke-opacity:1"
       d="m 867.36142,1405.9703 h 42.02156"
       id="path21-2-0-6" /><path
       style="fill:#808080;stroke:#55d400;stroke-width:5.64183;stroke-linecap:butt;stroke-linejoin:miter;stroke-dasharray:none;stroke-opacity:1"
       d="m 870.95441,1437.8331 v -66.6719"
       id="path21-2-1-4" /><path
       style="fill:#808080;stroke:#808080;stroke-width:5.642;stroke-linecap:butt;stroke-linejoin:miter;stroke-dasharray:none;stroke-opacity:1"
       d="M 639.80386,1404.8388 H 777.24291"
       id="path21-0" /><path
       id="rect21-8-5"
       style="fill:#808080;stroke-width:5.31329;stroke-linecap:round;stroke-linejoin:round"
       d="m 546.51263,1653.7597 h 78.13055 c 12.0064,0 32.02227,22.307 31.60673,28.1193 -0.41553,5.8123 -19.60033,26.512 -31.60673,26.512 h -78.13055 c -6.65155,0 -12.0064,-2.0039 -12.0064,-9.0081 v -36.6151 c 0,-7.0041 5.35485,-9.0081 12.0064,-9.0081 z"
       sodipodi:nodetypes="sszsssss" /><text
       xml:space="preserve"
       style="font-style:normal;font-weight:normal;font-size:36.1358px;line-height:0.95;font-family:sans-serif;letter-spacing:0px;word-spacing:0px;white-space:pre;inline-size:0;fill:#ffffff;fill-opacity:1;stroke:none"
       x="360.43906"
       y="980"
       id="text17-4-9-0-1"
       transform="matrix(0.86296871,0,0,0.90871786,274.07669,800.09296)"><tspan
         sodipodi:role="line"
         x="360.43906"
         y="980"
         id="tspan20-6-5-7"
         style="font-style:normal;font-variant:normal;font-weight:normal;font-stretch:normal;font-size:36.1358px;line-height:0.95;font-family:Cantarell;-inkscape-font-specification:Cantarell;text-align:center;text-anchor:middle;fill:#ffffff">Pin 3</tspan></text><path
       style="fill:#808080;stroke:#808080;stroke-width:5.64213;stroke-linecap:butt;stroke-linejoin:miter;stroke-dasharray:none;stroke-opacity:1"
       d="M 638.23242,1682.6967 H 775.67147"
       id="path21-0-4" /><path
       style="fill:#808080;stroke:#808080;stroke-width:6.279;stroke-linecap:butt;stroke-linejoin:miter;stroke-dasharray:none;stroke-opacity:1"
       d="m 641.03731,1581.316 v -66.0738"
       id="path21-0-4-0" /><path
       style="fill:#808080;stroke:#808080;stroke-width:6.279;stroke-linecap:butt;stroke-linejoin:miter;stroke-dasharray:none;stroke-opacity:1"
       d="M 640.00418,1545.2015 H 915.11091"
       id="path21-0-2" /><ellipse
       style="fill:#808080;stroke:none;stroke-width:5.64183;stroke-linecap:round;stroke-linejoin:round;stroke-dasharray:none;stroke-opacity:1"
       id="path22"
       cx="913.53265"
       cy="1406.0901"
       rx="7.559556"
       ry="7.287303" /><path
       style="fill:none;stroke:#ff5555;stroke-width:2.7645;stroke-linecap:round;stroke-linejoin:round;stroke-dasharray:none;stroke-opacity:1;marker-end:url(#RoundedArrow-9-10-5)"
       d="m 867.98609,1643.7473 -27.74282,-34.1146"
       id="path1-3-02-0-3"
       sodipodi:nodetypes="cc" /><path
       style="fill:none;stroke:#ff5555;stroke-width:2.7645;stroke-linecap:round;stroke-linejoin:round;stroke-dasharray:none;stroke-opacity:1;marker-end:url(#RoundedArrow-9-1-5-4)"
       d="M 844.44486,1643.8566 816.70204,1609.742"
       id="path1-3-02-1-4-6"
       sodipodi:nodetypes="cc" /><path
       id="rect21-2-8-0"
       style="fill:none;stroke:#ff5555;stroke-width:5.31329;stroke-linecap:round;stroke-linejoin:round;stroke-opacity:1"
       d="m 815.56831,1655.9737 c 26.07563,11.7209 31.81619,14.7918 54.50729,28.1192 -23.85044,14.2 -27.60667,15.0465 -54.50729,26.512 0.57594,-16.6849 -0.47058,-31.8707 0,-54.6312 z"
       sodipodi:nodetypes="cccc" /><path
       style="fill:#808080;stroke:#ff5555;stroke-width:5.642;stroke-linecap:butt;stroke-linejoin:miter;stroke-dasharray:none;stroke-opacity:1"
       d="m 773.34104,1683.0437 h 43.74173"
       id="path21-2-0-5" /><path
       style="fill:#808080;stroke:#ff5555;stroke-width:5.642;stroke-linecap:butt;stroke-linejoin:miter;stroke-dasharray:none;stroke-opacity:1"
       d="m 871.94215,1682.8982 h 43.74173"
       id="path21-2-0-5-7" /><path
       style="fill:#808080;stroke:#ff5555;stroke-width:5.64183;stroke-linecap:butt;stroke-linejoin:miter;stroke-dasharray:none;stroke-opacity:1"
       d="m 870.31895,1716.1898 v -66.6719"
       id="path21-2-1-4-0" /><ellipse
       style="fill:#808080;stroke:none;stroke-width:5.64183;stroke-linecap:round;stroke-linejoin:round;stroke-dasharray:none;stroke-opacity:1"
       id="path22-9"
       cx="914.05737"
       cy="1544.489"
       rx="7.559556"
       ry="7.287303" /><text
       xml:space="preserve"
       style="font-style:normal;font-weight:normal;font-size:36.1358px;line-height:0.95;font-family:sans-serif;letter-spacing:0px;word-spacing:0px;white-space:pre;inline-size:0;fill:#000000;fill-opacity:1;stroke:none"
       x="360.43906"
       y="980"
       id="text17-4-5-5-8"
       transform="matrix(0.86296871,0,0,0.90871786,771.85684,653.40413)"><tspan
         sodipodi:role="line"
         x="360.43906"
         y="980"
         id="tspan20-1-2-8"
         style="font-style:normal;font-variant:normal;font-weight:normal;font-stretch:normal;font-size:36.1358px;line-height:0.95;font-family:Cantarell;-inkscape-font-specification:Cantarell;text-align:center;text-anchor:middle">VCC</tspan></text><path
       id="rect21-6"
       style="fill:#808080;stroke-width:5.31329;stroke-linecap:round;stroke-linejoin:round"
       d="m 1058.7376,1229.4671 h 78.1305 c 12.0064,0 32.0223,22.3069 31.6068,28.1193 -0.4155,5.8122 -19.6004,26.5119 -31.6068,26.5119 h -78.1305 c -6.6516,0 -12.0064,-2.0039 -12.0064,-9.008 v -36.6152 c 0,-7.0041 5.3548,-9.008 12.0064,-9.008 z"
       sodipodi:nodetypes="sszsssss" /><text
       xml:space="preserve"
       style="font-style:normal;font-weight:normal;font-size:36.1358px;line-height:0.95;font-family:sans-serif;letter-spacing:0px;word-spacing:0px;white-space:pre;inline-size:0;fill:#ffffff;fill-opacity:1;stroke:none"
       x="360.43906"
       y="980"
       id="text17-4-9-3"
       transform="matrix(0.86296871,0,0,0.90871786,786.30169,375.80053)"><tspan
         sodipodi:role="line"
         x="360.43906"
         y="980"
         id="tspan20-6-3"
         style="font-style:normal;font-variant:normal;font-weight:normal;font-stretch:normal;font-size:36.1358px;line-height:0.95;font-family:Cantarell;-inkscape-font-specification:Cantarell;text-align:center;text-anchor:middle;fill:#ffffff">Pin 1</tspan></text><path
       id="rect21-8-3"
       style="fill:#808080;stroke-width:5.31329;stroke-linecap:round;stroke-linejoin:round"
       d="m 1059.0901,1367.8829 h 78.1306 c 12.0064,0 32.0222,22.307 31.6066,28.1193 -0.4155,5.8123 -19.6002,26.5119 -31.6066,26.5119 h -78.1306 c -6.6515,0 -12.0064,-2.0039 -12.0064,-9.008 v -36.6151 c 0,-7.0042 5.3549,-9.0081 12.0064,-9.0081 z"
       sodipodi:nodetypes="sszsssss" /><text
       xml:space="preserve"
       style="font-style:normal;font-weight:normal;font-size:36.1358px;line-height:0.95;font-family:sans-serif;letter-spacing:0px;word-spacing:0px;white-space:pre;inline-size:0;fill:#ffffff;fill-opacity:1;stroke:none"
       x="360.43906"
       y="980"
       id="text17-4-9-0-8"
       transform="matrix(0.86296871,0,0,0.90871786,786.65415,514.21624)"><tspan
         sodipodi:role="line"
         x="360.43906"
         y="980"
         id="tspan20-6-5-0"
         style="font-style:normal;font-variant:normal;font-weight:normal;font-stretch:normal;font-size:36.1358px;line-height:0.95;font-family:Cantarell;-inkscape-font-specification:Cantarell;text-align:center;text-anchor:middle;fill:#ffffff">Pin 2</tspan></text><path
       style="fill:#808080;stroke:#808080;stroke-width:5.74903;stroke-linecap:butt;stroke-linejoin:miter;stroke-dasharray:none;stroke-opacity:1"
       d="m 1152.888,1258.2501 h 142.7119"
       id="path21-4" /><path
       style="fill:#808080;stroke:#808080;stroke-width:5.62359;stroke-linecap:butt;stroke-linejoin:miter;stroke-dasharray:none;stroke-opacity:1"
       d="m 1424.6303,1258.2749 v 419.0996"
       id="path21-6-7" /><path
       style="fill:none;stroke:#55d400;stroke-width:2.7645;stroke-linecap:round;stroke-linejoin:round;stroke-dasharray:none;stroke-opacity:1;marker-end:url(#RoundedArrow-9-10-2)"
       d="m 1379.6275,1357.3716 -27.7428,-34.1146"
       id="path1-3-02-0-9"
       sodipodi:nodetypes="cc" /><path
       style="fill:none;stroke:#55d400;stroke-width:2.7645;stroke-linecap:round;stroke-linejoin:round;stroke-dasharray:none;stroke-opacity:1;marker-end:url(#RoundedArrow-9-1-5-6)"
       d="m 1356.0863,1357.4809 -27.7429,-34.1146"
       id="path1-3-02-1-4-0"
       sodipodi:nodetypes="cc" /><path
       id="rect21-2-8-6"
       style="fill:none;stroke:#55d400;stroke-width:5.31329;stroke-linecap:round;stroke-linejoin:round;stroke-opacity:1"
       d="m 1327.2098,1369.5979 c 26.0756,11.721 31.8161,14.7919 54.5072,28.1193 -23.8504,14.2 -27.6066,15.0465 -54.5072,26.512 0.5759,-16.6849 -0.4706,-31.8707 0,-54.6313 z"
       sodipodi:nodetypes="cccc" /><path
       style="fill:#808080;stroke:#55d400;stroke-width:5.64183;stroke-linecap:butt;stroke-linejoin:miter;stroke-dasharray:none;stroke-opacity:1"
       d="m 1381.9604,1429.8141 v -66.6719"
       id="path21-2-1-4-7" /><path
       style="fill:#808080;stroke:#808080;stroke-width:5.64213;stroke-linecap:butt;stroke-linejoin:miter;stroke-dasharray:none;stroke-opacity:1"
       d="m 1150.8098,1396.8199 h 137.4391"
       id="path21-0-9" /><path
       id="rect21-8-5-0"
       style="fill:#808080;stroke-width:5.31329;stroke-linecap:round;stroke-linejoin:round"
       d="m 1057.5186,1645.7408 h 78.1306 c 12.0064,0 32.0223,22.3069 31.6068,28.1192 -0.4156,5.8123 -19.6004,26.512 -31.6068,26.512 h -78.1306 c -6.6515,0 -12.0064,-2.0039 -12.0064,-9.0081 v -36.6151 c 0,-7.0041 5.3549,-9.008 12.0064,-9.008 z"
       sodipodi:nodetypes="sszsssss" /><text
       xml:space="preserve"
       style="font-style:normal;font-weight:normal;font-size:36.1358px;line-height:0.95;font-family:sans-serif;letter-spacing:0px;word-spacing:0px;white-space:pre;inline-size:0;fill:#ffffff;fill-opacity:1;stroke:none"
       x="360.43906"
       y="980"
       id="text17-4-9-0-1-3"
       transform="matrix(0.86296871,0,0,0.90871786,785.0827,792.07409)"><tspan
         sodipodi:role="line"
         x="360.43906"
         y="980"
         id="tspan20-6-5-7-3"
         style="font-style:normal;font-variant:normal;font-weight:normal;font-stretch:normal;font-size:36.1358px;line-height:0.95;font-family:Cantarell;-inkscape-font-specification:Cantarell;text-align:center;text-anchor:middle;fill:#ffffff">Pin 3</tspan></text><path
       style="fill:#808080;stroke:#808080;stroke-width:5.64183;stroke-linecap:butt;stroke-linejoin:miter;stroke-dasharray:none;stroke-opacity:1"
       d="m 1149.2385,1674.6777 h 137.4389"
       id="path21-0-4-3" /><path
       style="fill:#808080;stroke:#808080;stroke-width:6.279;stroke-linecap:butt;stroke-linejoin:miter;stroke-dasharray:none;stroke-opacity:1;marker-start:url(#marker20)"
       d="m 1139.8119,1537.1825 h 286.3049"
       id="path21-0-2-7" /><ellipse
       style="fill:#808080;stroke:none;stroke-width:5.64183;stroke-linecap:round;stroke-linejoin:round;stroke-dasharray:none;stroke-opacity:1"
       id="path22-3"
       cx="1424.5387"
       cy="1398.0713"
       rx="7.559556"
       ry="7.287303" /><path
       style="fill:none;stroke:#ff5555;stroke-width:2.7645;stroke-linecap:round;stroke-linejoin:round;stroke-dasharray:none;stroke-opacity:1;marker-end:url(#RoundedArrow-9-10-5-1)"
       d="m 1378.9921,1635.7283 -27.7429,-34.1146"
       id="path1-3-02-0-3-2"
       sodipodi:nodetypes="cc" /><path
       style="fill:none;stroke:#ff5555;stroke-width:2.7645;stroke-linecap:round;stroke-linejoin:round;stroke-dasharray:none;stroke-opacity:1;marker-end:url(#RoundedArrow-9-1-5-4-8)"
       d="M 1355.4508,1635.8377 1327.708,1601.723"
       id="path1-3-02-1-4-6-6"
       sodipodi:nodetypes="cc" /><path
       id="rect21-2-8-0-5"
       style="fill:none;stroke:#ff5555;stroke-width:5.31329;stroke-linecap:round;stroke-linejoin:round;stroke-opacity:1"
       d="m 1326.5743,1647.9547 c 26.0756,11.7209 31.8162,14.7918 54.5073,28.1193 -23.8505,14.1999 -27.6067,15.0464 -54.5073,26.5119 0.5759,-16.6849 -0.4706,-31.8707 0,-54.6312 z"
       sodipodi:nodetypes="cccc" /><path
       style="fill:#808080;stroke:#ff5555;stroke-width:5.64183;stroke-linecap:butt;stroke-linejoin:miter;stroke-dasharray:none;stroke-opacity:1"
       d="M 1381.3249,1708.1709 V 1641.499"
       id="path21-2-1-4-0-6" /><ellipse
       style="fill:#808080;stroke:none;stroke-width:5.64183;stroke-linecap:round;stroke-linejoin:round;stroke-dasharray:none;stroke-opacity:1"
       id="path22-9-5"
       cx="1425.0632"
       cy="1536.4701"
       rx="7.559556"
       ry="7.287303" /><path
       style="fill:#808080;stroke:#55d400;stroke-width:5.6425;stroke-linecap:butt;stroke-linejoin:miter;stroke-dasharray:none;stroke-opacity:1"
       d="m 1284.4425,1397.2429 h 42.0216"
       id="path21-2-0-1" /><path
       style="fill:#808080;stroke:#55d400;stroke-width:5.6425;stroke-linecap:butt;stroke-linejoin:miter;stroke-dasharray:none;stroke-opacity:1"
       d="m 1377.8274,1398.5262 h 42.0216"
       id="path21-2-0-6-0" /><path
       style="fill:#808080;stroke:#ff5555;stroke-width:5.642;stroke-linecap:butt;stroke-linejoin:miter;stroke-dasharray:none;stroke-opacity:1"
       d="m 1285.2296,1674.6245 h 43.7417"
       id="path21-2-0-5-5" /><path
       style="fill:#808080;stroke:#ff5555;stroke-width:5.642;stroke-linecap:butt;stroke-linejoin:miter;stroke-dasharray:none;stroke-opacity:1"
       d="m 1383.8307,1674.479 h 43.7417"
       id="path21-2-0-5-7-2" /></g></svg>
